<?xml version="1.0" encoding="UTF-8" standalone="no"?>
<svg
   shape-rendering="geometricPrecision"
   text-rendering="geometricPrecision"
   image-rendering="optimizeQuality"
   fill-rule="evenodd"
   clip-rule="evenodd"
   viewBox="0 0 800 799.89999"
   version="1.1"
   id="svg4"
   sodipodi:docname="csv_download.svg"
   inkscape:version="1.2.2 (b0a8486541, 2022-12-01)"
   width="800"
   height="799.90002"
   xmlns:inkscape="http://www.inkscape.org/namespaces/inkscape"
   xmlns:sodipodi="http://sodipodi.sourceforge.net/DTD/sodipodi-0.dtd"
   xmlns="http://www.w3.org/2000/svg"
   xmlns:svg="http://www.w3.org/2000/svg">
  <defs
     id="defs8" />
  <sodipodi:namedview
     id="namedview6"
     pagecolor="#505050"
     bordercolor="#eeeeee"
     borderopacity="1"
     inkscape:showpageshadow="0"
     inkscape:pageopacity="0"
     inkscape:pagecheckerboard="0"
     inkscape:deskcolor="#505050"
     showgrid="false"
     inkscape:zoom="0.54964354"
     inkscape:cx="-18.19361"
     inkscape:cy="496.68554"
     inkscape:window-width="1920"
     inkscape:window-height="996"
     inkscape:window-x="0"
     inkscape:window-y="0"
     inkscape:window-maximized="1"
     inkscape:current-layer="svg4" />
  <path
     id="path162"
     style="fill:#008000;fill-opacity:1;stroke-width:2.54108"
     d="M 400 0 A 400 399.95001 0 0 0 0 399.94922 A 400 399.95001 0 0 0 400 799.90039 A 400 399.95001 0 0 0 800 399.94922 A 400 399.95001 0 0 0 400 0 z M 209.32812 87.539062 L 427.68359 87.539062 C 432.84486 87.539062 437.42922 90.007407 440.33008 93.835938 L 577.70117 242.87305 C 580.51413 245.93335 581.89453 249.7869 581.89453 253.64062 L 581.93164 404.41602 C 571.65936 401.93502 561.06089 400.32266 550.21094 399.64258 L 550.21094 287.24023 L 498.3457 287.19141 C 470.10319 286.75062 447.84992 279.13223 431.91406 265.48047 C 415.30008 251.23678 405.94507 231.03466 404.04883 205.99805 L 403.91211 203.80664 L 403.91211 119.39062 L 209.32812 119.39062 C 196.34336 119.39062 184.52759 124.71741 175.98828 133.28125 C 167.44898 141.84509 162.13477 153.69668 162.13477 166.71875 L 162.13477 590.49023 C 162.13477 603.46193 167.47353 615.31225 176.02539 623.88867 C 184.56469 632.45252 196.39359 637.80469 209.32812 637.80469 L 359.28125 637.80469 C 362.47093 648.87471 366.65237 659.53075 371.73828 669.65625 L 209.32812 669.65625 C 187.62825 669.65625 167.86389 660.73809 153.56055 646.40625 C 139.26976 632.06182 130.37695 612.25245 130.37695 590.49023 L 130.37695 166.71875 C 130.37695 144.98171 139.26671 125.18144 153.54492 110.84961 C 167.91106 96.4548 187.65336 87.539062 209.32812 87.539062 z M 435.66992 135.49609 L 435.66992 203.73047 C 436.91313 220.01436 442.57568 232.81077 452.52148 241.32422 C 462.81887 250.15252 478.21829 255.10157 498.59961 255.4668 L 546.21875 255.41602 L 435.66992 135.49609 z M 261.68359 324.01758 L 450.66602 324.01758 C 459.43137 324.01758 466.54883 331.14219 466.54883 339.94531 C 466.54883 348.73583 459.43137 355.86523 450.66602 355.86523 L 261.68359 355.86523 C 252.91823 355.86523 245.80859 348.73583 245.80859 339.94531 C 245.80859 331.14219 252.91823 324.01758 261.68359 324.01758 z M 261.68359 415.06836 L 440.65625 415.06836 C 445.3152 415.06836 449.50846 417.08543 452.42188 420.29688 A 187.14937 187.68692 0 0 0 414.07227 446.91992 L 261.68359 446.91992 C 252.91823 446.91992 245.80859 439.79139 245.80859 430.98828 C 245.80859 422.19776 252.91823 415.06836 261.68359 415.06836 z M 538.3418 439.88086 C 578.53935 439.88086 614.95897 456.26487 641.35547 482.72461 C 667.83988 509.17174 684.17773 545.75576 684.17773 586.11914 C 684.17773 626.49511 667.84098 663.0802 641.45703 689.52734 L 639.79883 691.06445 C 613.52789 716.61743 577.74821 732.375 538.3418 732.375 C 498.08148 732.375 461.61358 715.98708 435.24219 689.52734 C 408.85823 663.0802 392.52148 626.49511 392.52148 586.11914 C 392.52148 545.74317 408.85823 509.17174 435.24219 482.72461 C 461.61358 456.26487 498.08148 439.88086 538.3418 439.88086 z M 261.68359 506.125 L 369.92969 506.125 C 365.1326 516.26307 361.20415 526.91525 358.26562 537.97266 L 261.68359 537.97266 C 252.91823 537.97266 245.80859 530.84413 245.80859 522.04102 C 245.80859 513.25049 252.91823 506.125 261.68359 506.125 z M 520.72461 522.82422 C 513.32806 522.82422 507.28906 528.95551 507.28906 536.28516 L 507.28906 577.1543 L 482.5 577.1543 C 478.02942 577.34321 474.87698 578.82721 473.00586 581.62305 C 468.39716 588.51189 473.85784 595.32621 478.26562 600.30078 L 529.76562 652.96875 C 535.19061 658.3967 541.46955 658.33372 546.89453 652.96875 L 597.17773 601.69727 C 601.88692 596.49598 608.69332 589.10381 603.69531 581.62305 C 601.87442 578.82721 598.6952 577.34321 594.22461 577.1543 L 569.41016 577.1543 L 569.41016 536.28516 C 569.41016 528.86736 563.37199 522.82422 555.96289 522.82422 L 520.72461 522.82422 z " />
</svg>
