<?xml version="1.0" encoding="UTF-8"?>
<!DOCTYPE svg PUBLIC "-//W3C//DTD SVG 1.1//EN" "http://www.w3.org/Graphics/SVG/1.1/DTD/svg11.dtd">
<!-- Creator: CorelDRAW 2021 (64-Bit) -->
<svg xmlns="http://www.w3.org/2000/svg" xml:space="preserve" width="563px" height="563px" version="1.1" style="shape-rendering:geometricPrecision; text-rendering:geometricPrecision; image-rendering:optimizeQuality; fill-rule:evenodd; clip-rule:evenodd"
viewBox="0 0 748.14 748.14"
 xmlns:xlink="http://www.w3.org/1999/xlink"
 xmlns:xodm="http://www.corel.com/coreldraw/odm/2003">
 <defs>
  <style type="text/css">
   <![CDATA[
    .fil1 {fill:none}
    .fil0 {fill:black}
   ]]>
  </style>
 </defs>
 <g id="Layer_x0020_1">
  <metadata id="CorelCorpID_0Corel-Layer"/>
  <path class="fil0" d="M747.98 374.48c0.13,112.09 -49.19,212.7 -127.33,281.25l0 0.89c-6.36,5.28 -12.93,10.36 -19.69,15.23 -56.69,43.31 -126.12,70.77 -201.68,75.72l50.81 -50.81c9.28,-9.28 9.28,-24.47 0,-33.72 -9.28,-9.28 -24.45,-9.28 -33.72,0l-18.44 18.43 0 -83.88c0,-13.11 -10.75,-23.84 -23.86,-23.84 -13.11,0 -23.84,10.73 -23.84,23.84l0 83.88 -18.45 -18.43c-9.29,-9.28 -24.45,-9.28 -33.73,0 -9.27,9.25 -9.27,24.44 0,33.72l50.82 50.81c-75.56,-4.95 -145,-32.41 -201.69,-75.72 -6.76,-4.87 -13.32,-9.94 -19.68,-15.22l0 -0.9c-78.15,-68.55 -127.47,-169.16 -127.33,-281.25 -0.25,-206.53 167.37,-374.2 373.9,-373.91 206.53,-0.29 374.16,167.38 373.91,373.91zm-400.77 -169.59c-7.58,-0.85 -34.35,1.02 -38.77,-0.64 -0.07,-0.74 -0.72,-40.86 0,-44.05l0.43 -0.71 38.27 -0.08c1.38,-9.9 -1.02,-30.47 1.14,-45.34 3.62,-25.77 20.65,-43.11 46.29,-46.49 6.27,-0.8 41,-0.8 44.83,1.22 0.71,0.87 0.57,-1.38 0.64,1.59l-0.14 38.26c-2.81,1.02 -21.51,0.66 -25.55,0.51 -11.78,-0.94 -18.62,5.12 -20.14,15.02 -0.79,5.49 -1.1,29.53 -0.29,35.16l44.39 0.07 -5.78 44.54c-3.68,1.51 -31.84,-0.08 -38.68,0.51l-0.1 107.26 -46.36 0.01 -0.18 -106.84 0 0zm-58.43 278.92c-1,19.72 -7.52,34.62 -19.49,44.72 -11.99,10.11 -28.86,15.19 -50.67,15.19 -22.97,0 -40.52,-6.44 -52.72,-19.28 -12.23,-12.88 -18.3,-31.23 -18.3,-55.05l0 -29.12c0,-23.73 6.3,-42.06 18.91,-54.91 12.63,-12.87 30.19,-19.28 52.68,-19.28 22.05,0 38.89,5.25 50.34,15.75 11.47,10.52 17.97,25.64 19.54,45.32l-41.08 0c-0.37,-12.19 -2.55,-20.58 -6.6,-25.23 -4.03,-4.62 -11.46,-6.93 -22.2,-6.93 -10.99,0 -18.76,3.27 -23.3,9.81 -4.53,6.54 -7.22,17.29 -7.22,32.28l0 32.68c0,17.17 2.24,28.99 6.75,35.39 4.52,6.44 12.21,9.65 23.2,9.65 10.74,0 18.2,-2.24 22.29,-6.73 4.08,-4.46 6.37,-12.55 6.94,-24.26l40.93 0zm108.95 12.15c0,-7.04 -2.1,-12.39 -6.33,-15.95 -4.23,-3.61 -11.88,-7.38 -23.05,-11.22 -20.35,-6.56 -34.94,-14.26 -43.88,-23.09 -8.89,-8.83 -13.36,-19.27 -13.36,-31.3 0,-14.55 6.09,-26.25 18.16,-35.08 12.12,-8.82 27.53,-13.24 46.21,-13.24 12.4,0 23.53,2.23 33.27,6.72 9.75,4.5 17.26,10.82 22.49,18.95 5.23,8.19 7.84,17.42 7.84,27.79l-40.78 0c0,-8.06 -2,-14.22 -6.04,-18.43 -4.04,-4.25 -9.89,-6.36 -17.5,-6.36 -7.13,0 -12.73,1.78 -16.73,5.39 -3.99,3.6 -5.99,8.47 -5.99,14.54 0,4.74 2.24,9.03 6.7,12.88 4.47,3.81 12.36,7.81 23.68,11.91 19.78,6.07 34.13,13.57 43.11,22.43 8.94,8.87 13.46,20.13 13.46,33.86 0,15.03 -5.66,26.77 -16.88,35.24 -11.22,8.46 -26.52,12.72 -45.82,12.72 -13.08,0 -25.01,-2.32 -35.8,-6.89 -10.74,-4.62 -19.2,-11.18 -25.24,-19.77 -6.09,-8.54 -9.13,-18.63 -9.13,-30.25l41.07 0c0,9.96 2.28,17.21 6.8,21.71 4.57,4.49 11.98,6.76 22.3,6.76 14.3,0 21.44,-6.44 21.44,-19.32zm-270.23 -165.91l384.86 0 43 43.83 -32.67 119.94 -33.99 -125.31 -45.4 0 58.09 172.77 42.59 0 45.07 -133.05 31.6 32.21 0 151.93c51.33,-58.06 82.49,-134.36 82.36,-217.89 0.28,-181.64 -147.3,-329.21 -328.94,-328.94 -181.64,-0.27 -329.21,147.3 -328.94,328.94 -0.13,83.53 31.03,159.84 82.37,217.89l0 -262.32z"/>
  <rect class="fil1" width="748.14" height="748.14"/>
 </g>
</svg>
