<?xml version="1.0" encoding="UTF-8"?>
<!DOCTYPE svg PUBLIC "-//W3C//DTD SVG 1.1//EN" "http://www.w3.org/Graphics/SVG/1.1/DTD/svg11.dtd">
<!-- Creator: CorelDRAW 2021 (64-Bit) -->
<svg xmlns="http://www.w3.org/2000/svg" xml:space="preserve" width="563px" height="563px" version="1.1" style="shape-rendering:geometricPrecision; text-rendering:geometricPrecision; image-rendering:optimizeQuality; fill-rule:evenodd; clip-rule:evenodd"
viewBox="0 0 221.69 221.69"
 xmlns:xlink="http://www.w3.org/1999/xlink"
 xmlns:xodm="http://www.corel.com/coreldraw/odm/2003">
 <defs>
  <style type="text/css">
   <![CDATA[
    .fil0 {fill:none}
    .fil1 {fill:black}
   ]]>
  </style>
 </defs>
 <g id="Layer_x0020_1">
  <metadata id="CorelCorpID_0Corel-Layer"/>
  <rect class="fil0" width="221.69" height="221.69"/>
  <path class="fil1" d="M221.64 110.85c0.08,61.19 -49.6,110.87 -110.79,110.79 -61.2,0.08 -110.87,-49.6 -110.8,-110.79 -0.07,-61.2 49.6,-110.89 110.8,-110.8 61.19,-0.09 110.87,49.6 110.79,110.8zm-94.04 -16.07c-3.83,0 -5.74,-3.82 -5.74,-7.66l0 -2.81 0 -22.11 0 -24.87 -66.8 0 0 147.03 114.67 0 0 -89.58 -42.13 0zm5.74 -47.87l0 34.47 32.56 0 -32.56 -34.47zm22.66 112.63c1.56,-1.56 4.11,-1.56 5.67,0 1.56,1.56 1.56,4.11 0,5.67l-9.93 9.93 -0.02 0.02c-0.25,0.25 -0.51,0.45 -0.8,0.62l-0.09 0.05 -0.08 0.05 -0.09 0.04 -0.09 0.04 -0.09 0.04 0 0 -0.09 0.04 -0.09 0.04 0 0 -0.09 0.03 -0.09 0.03 -0.1 0.03 -0.09 0.03 -0.09 0.02 0 0 -0.1 0.02 0 0 -0.09 0.02 0 0 -0.1 0.02 -0.09 0.01 -0.1 0.02 0 0 -0.09 0.01 -0.1 0.01 -0.1 0 -0.09 0 -0.1 0 -0.09 0 -0.1 0 -0.1 0 0 0 -0.09 -0.01 -0.1 -0.01 -0.09 -0.02 -0.01 0 -0.09 -0.01 -0.1 -0.02 -0.09 -0.02 -0.09 -0.02 -0.1 -0.02 -0.09 -0.03 -0.09 -0.03 -0.1 -0.03 -0.09 -0.03 -0.09 -0.04 -0.09 -0.04 -0.09 -0.04 -0.09 -0.04 0 0 -0.09 -0.04 -0.08 -0.05 -0.09 -0.05c-0.28,-0.17 -0.55,-0.37 -0.8,-0.62l-0.02 -0.02 -9.93 -9.93c-1.56,-1.56 -1.56,-4.11 0,-5.67 1.56,-1.56 4.11,-1.56 5.68,0l3.1 3.1 0 -13.9c0,-2.21 1.8,-4.01 4.01,-4.01 2.21,0 4.01,1.8 4.01,4.01l0 13.9 3.11 -3.1zm-47.5 -93.76c0.01,0.06 0.23,1.36 0.23,3.56 0,5.21 -1.77,10.19 -5.18,13.78 -3.47,3.66 -8.34,5.67 -13.48,5.67 -5.64,0 -11.13,-2.09 -15,-6.09 -3.63,-3.75 -5.46,-8.87 -5.46,-13.85 0,-4.99 1.94,-10.37 5.68,-14.08 3.79,-3.78 8.97,-5.85 14.38,-5.85 7.01,0 11.5,3.62 13.14,5.06l-5.58 5.55c-0.99,-0.9 -3.66,-2.88 -7.38,-2.88 -3.25,0 -6.52,1.23 -8.67,3.4 -2.17,2.17 -3.66,5.48 -3.66,8.79 0,3.34 1.45,6.59 3.72,8.8 2.22,2.15 5.56,3.48 8.74,3.48 4.36,0 9.7,-2.88 10.85,-8.34l-11.08 0 0 -7.85 18.55 0 0.2 0.85zm-38.77 39.95l85.33 0c2.82,0 5.13,2.31 5.13,5.13 0,2.83 -2.31,5.14 -5.13,5.14l-85.33 0c-2.82,0 -5.13,-2.31 -5.13,-5.14 0,-2.82 2.31,-5.13 5.13,-5.13zm0 20.63l85.33 0c2.82,0 5.13,2.31 5.13,5.13 0,2.82 -2.31,5.13 -5.13,5.13l-85.33 0c-2.82,0 -5.13,-2.31 -5.13,-5.13 0,-2.82 2.31,-5.13 5.13,-5.13zm-5 43.32c0,-0.71 0.25,-1.3 0.72,-1.77 0.48,-0.46 1.1,-0.69 1.87,-0.69 0.74,0 1.36,0.23 1.85,0.69 0.5,0.46 0.75,1.05 0.75,1.77 0,0.73 -0.25,1.33 -0.75,1.77 -0.5,0.45 -1.12,0.67 -1.85,0.67 -0.75,0 -1.37,-0.22 -1.86,-0.67 -0.48,-0.45 -0.73,-1.05 -0.73,-1.77zm24.79 -5.35c-0.12,2.62 -0.85,4.6 -2.21,5.94 -1.35,1.34 -3.26,2.02 -5.73,2.02 -2.59,0 -4.58,-0.86 -5.96,-2.56 -1.38,-1.71 -2.07,-4.15 -2.07,-7.31l0 -3.87c0,-3.15 0.72,-5.58 2.14,-7.28 1.43,-1.71 3.41,-2.56 5.96,-2.56 2.49,0 4.39,0.7 5.69,2.09 1.3,1.4 2.03,3.4 2.21,6.01l-4.65 0c-0.04,-1.62 -0.29,-2.73 -0.74,-3.35 -0.46,-0.61 -1.3,-0.92 -2.51,-0.92 -1.25,0 -2.12,0.44 -2.64,1.31 -0.51,0.87 -0.78,2.29 -0.81,4.28l0 4.34c0,2.28 0.25,3.85 0.76,4.7 0.51,0.85 1.38,1.28 2.62,1.28 1.22,0 2.06,-0.3 2.52,-0.9 0.47,-0.59 0.72,-1.66 0.79,-3.22l4.63 0zm12.54 1.62c0,-0.94 -0.24,-1.65 -0.72,-2.12 -0.47,-0.48 -1.34,-0.98 -2.6,-1.49 -2.3,-0.87 -3.95,-1.89 -4.96,-3.06 -1.01,-1.18 -1.52,-2.56 -1.52,-4.16 0,-1.93 0.69,-3.48 2.06,-4.66 1.37,-1.17 3.11,-1.75 5.22,-1.75 1.41,0 2.66,0.29 3.77,0.89 1.1,0.6 1.95,1.43 2.54,2.51 0.59,1.09 0.89,2.32 0.89,3.69l-4.62 0c0,-1.07 -0.22,-1.88 -0.68,-2.44 -0.46,-0.57 -1.12,-0.85 -1.98,-0.85 -0.8,0 -1.44,0.24 -1.89,0.72 -0.45,0.48 -0.68,1.12 -0.68,1.93 0,0.63 0.26,1.2 0.76,1.71 0.51,0.5 1.4,1.03 2.68,1.58 2.24,0.8 3.86,1.8 4.87,2.98 1.01,1.17 1.53,2.67 1.53,4.49 0,1.99 -0.64,3.55 -1.91,4.68 -1.27,1.12 -3,1.69 -5.18,1.69 -1.48,0 -2.83,-0.31 -4.05,-0.92 -1.22,-0.61 -2.18,-1.48 -2.86,-2.62 -0.69,-1.14 -1.03,-2.48 -1.03,-4.02l4.64 0c0,1.32 0.26,2.29 0.77,2.88 0.52,0.6 1.36,0.9 2.53,0.9 1.61,0 2.42,-0.85 2.42,-2.56zm15.2 -0.29l3.86 -16.63 5.16 0 -6.61 22.93 -4.82 0 -6.57 -22.93 5.13 0 3.85 16.63zm91.06 -54.81c0.08,53.82 -43.65,97.55 -97.47,97.47 -53.83,0.08 -97.56,-43.65 -97.48,-97.47 -0.08,-53.83 43.65,-97.56 97.48,-97.48 53.82,-0.08 97.55,43.65 97.47,97.48z"/>
 </g>
</svg>
