<?xml version="1.0" encoding="UTF-8"?>
<!DOCTYPE svg PUBLIC "-//W3C//DTD SVG 1.1//EN" "http://www.w3.org/Graphics/SVG/1.1/DTD/svg11.dtd">
<!-- Creator: CorelDRAW 2021 (64-Bit) -->
<svg xmlns="http://www.w3.org/2000/svg" xml:space="preserve" width="185px" height="188px" version="1.1" style="shape-rendering:geometricPrecision; text-rendering:geometricPrecision; image-rendering:optimizeQuality; fill-rule:evenodd; clip-rule:evenodd"
viewBox="0 0 180.34 183.12"
 xmlns:xlink="http://www.w3.org/1999/xlink"
 xmlns:xodm="http://www.corel.com/coreldraw/odm/2003">
 <defs>
  <style type="text/css">
   <![CDATA[
    .fil0 {fill:none}
    .fil1 {fill:black}
   ]]>
  </style>
 </defs>
 <g id="Layer_x0020_1">
  <metadata id="CorelCorpID_0Corel-Layer"/>
  <rect class="fil0" x="4.66" width="175.68" height="175.68"/>
  <path class="fil1" d="M87.75 7.43c48.74,0 87.93,39.38 87.93,87.75 0,48.75 -39.38,87.94 -87.93,87.94 -48.56,0 -87.75,-39.38 -87.75,-87.94 0,-17.04 4.86,-32.93 13.24,-46.37l19.97 3.1c3.44,17.78 7.46,35.36 11.09,53.14 0.89,3.95 2.03,12.63 3.77,18.74 2.42,8.5 7.23,7.25 12.89,7.36 4.53,0.09 10.2,0.05 16.14,-0.06l42.95 0c2.48,0 4.51,-2.03 4.51,-4.51l0 -0.01c0,-2.48 -2.03,-4.5 -4.51,-4.5l-15.77 0 -41.06 0 -0.1 0 -6.01 0 -0.62 -3.81c22.19,-2.34 45.75,-5.64 67.79,-9.27 5.18,-0.85 8.93,-2.98 10.85,-10.66 1.3,-5.22 2.6,-12.17 4.56,-21 4.68,-22.33 5.13,-19.97 -34.6,-19.69 -20.46,0 -41.29,0 -61.75,0 -1.02,-8.65 -0.99,-13.52 -8.45,-14.53l-16.11 -2.19c16.08,-20.41 41.02,-33.49 68.97,-33.49zm2.89 90.58l4.68 -4.68 -33.34 0c-3.32,0 -6.05,-2.73 -6.05,-6.05 0,-3.33 2.73,-6.05 6.05,-6.05l33.34 0 -4.68 -4.69c-2.36,-2.35 -2.36,-6.2 0,-8.55l0 0c2.35,-2.36 6.2,-2.36 8.55,0l14.98 14.97 0.03 0.04 0.01 0c0.36,0.36 0.67,0.77 0.93,1.2l0.07 0.13 0 0 0.07 0.13 0.07 0.13 0 0 0.06 0.13 0 0.01 0.06 0.13 0 0 0.06 0.14 0.05 0.13 0 0 0.05 0.14 0 0 0.05 0.14 0 0 0.04 0.14 0 0 0.04 0.14 0 0 0.04 0.14 0 0 0.03 0.14 0 0.01 0.03 0.14 0 0 0.03 0.14 0 0 0.02 0.15 0 0 0.02 0.14 0 0 0.01 0.14 0 0.01 0.02 0.14 0 0 0 0.15 0.01 0.14 0 0 0 0.14 0 0.01 0 0.14 0 0 -0.01 0.15 0 0.14 0 0 -0.02 0.15 0 0 -0.01 0.14 0 0 -0.02 0.14 0 0.01 -0.02 0.14 0 0 -0.03 0.14 0 0 -0.03 0.15 0 0 -0.03 0.14 0 0 -0.04 0.14 0 0 -0.04 0.14 0 0 -0.04 0.14 0 0 -0.05 0.14 -0.05 0.14 0 0 -0.05 0.13 0 0.01 -0.06 0.13 0 0 -0.06 0.14 0 0 -0.06 0.13 0 0 -0.07 0.13 0 0 -0.07 0.13 0 0 -0.07 0.13c-0.26,0.43 -0.57,0.84 -0.93,1.21l-0.01 0 -0.08 0.08 -14.93 14.93c-2.35,2.35 -6.2,2.35 -8.55,0 -2.36,-2.36 -2.36,-6.21 0,-8.56zm4.69 51.82c0.99,6.29 6.91,11.73 14.38,10.74 6.55,-0.87 12.14,-6.88 11.08,-14.56 -0.9,-6.49 -7.03,-12.08 -14.72,-10.9 -6.36,0.97 -11.95,6.96 -10.74,14.72zm-40.49 -0.55c0.71,6.56 6.69,12.05 14.09,11.33 6.62,-0.65 12.19,-6.56 11.5,-14.05 -0.62,-6.7 -6.68,-12.31 -14.2,-11.53 -6.71,0.7 -12.19,6.71 -11.39,14.25z"/>
 </g>
</svg>
