<?xml version="1.0" encoding="UTF-8"?>
<!DOCTYPE svg PUBLIC "-//W3C//DTD SVG 1.1//EN" "http://www.w3.org/Graphics/SVG/1.1/DTD/svg11.dtd">
<!-- Creator: CorelDRAW 2021 (64-Bit) -->
<svg xmlns="http://www.w3.org/2000/svg" xml:space="preserve" width="50px" height="50px" version="1.1" style="shape-rendering:geometricPrecision; text-rendering:geometricPrecision; image-rendering:optimizeQuality; fill-rule:evenodd; clip-rule:evenodd"
viewBox="0 0 19.93 19.93"
 xmlns:xlink="http://www.w3.org/1999/xlink"
 xmlns:xodm="http://www.corel.com/coreldraw/odm/2003">
 <defs>
  <style type="text/css">
   <![CDATA[
    .fil0 {fill:white}
   ]]>
  </style>
 </defs>
 <g id="Layer_x0020_1">
  <metadata id="CorelCorpID_0Corel-Layer"/>
  <path class="fil0" d="M9.97 0c5.52,0 9.96,4.47 9.96,9.97 0,5.52 -4.47,9.96 -9.96,9.96 -5.53,0 -9.97,-4.47 -9.97,-9.96 0,-5.53 4.47,-9.97 9.97,-9.97zm3.36 2.96c2.26,0 4.1,1.83 4.1,4.09 0,2.26 -1.84,4.1 -4.1,4.1 -2.26,0 -4.09,-1.84 -4.09,-4.1 0,-2.26 1.83,-4.09 4.09,-4.09zm-0.44 13.23c0.59,0 1.07,0.48 1.07,1.05 0,0.6 -0.48,1.08 -1.07,1.08 -0.6,0 -1.08,-0.48 -1.08,-1.08 0,-0.59 0.48,-1.05 1.08,-1.05zm2.47 -4.91c-0.34,0.18 -0.7,0.31 -1.09,0.38 -0.12,0.56 -0.2,0.59 -0.99,0.67 -2.43,0.23 -4.95,0.46 -7.37,0.78l-0.98 -4.67 3.95 0c-0.1,-0.32 -0.16,-0.65 -0.19,-1l-3.96 0c-0.14,-1.1 -0.11,-1.67 -1.33,-1.67 -0.37,0 -1.24,-0.02 -1.56,0 -0.48,0.09 -0.65,0.51 -0.28,0.85l0 -0.02c0.34,0.36 1.44,0.17 2.01,0.19 0.4,2.01 0.85,4.02 1.27,6.03 0.15,0.68 0.37,2.55 0.77,2.84 0.37,0.25 6.2,0.14 7.08,0.14 0.45,0 1.38,0.14 1.64,-0.17 0.17,-0.2 0.42,-0.88 -0.77,-0.88 -2.43,0 -4.84,0 -7.27,0l-0.11 -0.68c2.12,-0.2 4.19,-0.45 6.28,-0.68 1.27,-0.14 2.32,-0.03 2.58,-0.82 0.11,-0.34 0.22,-0.81 0.32,-1.29zm-8.36 4.91c0.59,0 1.04,0.48 1.04,1.05 0,0.6 -0.48,1.08 -1.04,1.08 -0.6,0 -1.08,-0.48 -1.08,-1.08 0,-0.59 0.48,-1.05 1.08,-1.05zm5.57 -12.44l1.41 0 0 2.5 2.5 0 0 1.41 -2.5 0 0 2.5 -1.41 0 0 -2.5 -2.5 0 0 -1.41 2.5 0 0 -2.5z"/>
 </g>
</svg>
