<?xml version="1.0" encoding="UTF-8"?>
<!DOCTYPE svg PUBLIC "-//W3C//DTD SVG 1.1//EN" "http://www.w3.org/Graphics/SVG/1.1/DTD/svg11.dtd">
<!-- Creator: CorelDRAW 2021 (64-Bit) -->
<svg xmlns="http://www.w3.org/2000/svg" xml:space="preserve" width="50px" height="50px" version="1.1" style="shape-rendering:geometricPrecision; text-rendering:geometricPrecision; image-rendering:optimizeQuality; fill-rule:evenodd; clip-rule:evenodd"
viewBox="0 0 20.25 20.25"
 xmlns:xlink="http://www.w3.org/1999/xlink"
 xmlns:xodm="http://www.corel.com/coreldraw/odm/2003">
 <defs>
  <style type="text/css">
   <![CDATA[
    .fil0 {fill:white}
   ]]>
  </style>
 </defs>
 <g id="Layer_x0020_1">
  <metadata id="CorelCorpID_0Corel-Layer"/>
  <path class="fil0" d="M10.12 0c5.61,0 10.13,4.54 10.13,10.12 0,5.61 -4.55,10.13 -10.13,10.13 -5.6,0 -10.12,-4.55 -10.12,-10.13 0,-5.6 4.54,-10.12 10.12,-10.12zm3.43 15.22c0.6,0 1.09,0.48 1.09,1.06 0,0.6 -0.49,1.09 -1.09,1.09 -0.61,0 -1.1,-0.49 -1.1,-1.09 0,-0.6 0.49,-1.06 1.1,-1.06zm-11.51 -9.76c0.35,0.38 1.47,0.18 2.04,0.21 0.41,2.04 0.87,4.08 1.3,6.12 0.14,0.69 0.37,2.59 0.77,2.88 0.38,0.26 6.3,0.14 7.2,0.14 0.46,0 1.4,0.15 1.66,-0.17 0.18,-0.2 0.44,-0.89 -0.77,-0.89 -2.48,0 -4.92,0 -7.39,0l-0.12 -0.69c2.16,-0.2 4.26,-0.46 6.39,-0.69 1.29,-0.15 2.35,-0.03 2.61,-0.84 0.26,-0.75 0.46,-2.1 0.64,-2.93 0.57,-2.73 0.69,-2.27 -4,-2.27 -2.36,0 -4.75,0 -7.11,0 -0.14,-1.12 -0.11,-1.7 -1.35,-1.7 -0.37,0 -1.26,-0.03 -1.58,0 -0.49,0.09 -0.66,0.52 -0.29,0.86l0 -0.03zm5.53 9.76c0.6,0 1.06,0.48 1.06,1.06 0,0.6 -0.49,1.09 -1.06,1.09 -0.61,0 -1.1,-0.49 -1.1,-1.09 0,-0.6 0.49,-1.06 1.1,-1.06zm1.79 -4.72l3.4 0 0 1.23 2.85 -2.32 -2.85 -2.32 0 1.23 -3.4 0 0 0.1 0 1.98 0 0.1zm-2.71 -2.18l-0.62 0 0 2.18 0.62 0 0 -2.18zm2.03 0l-1.21 0 0 2.18 1.21 0 0 -2.18z"/>
 </g>
</svg>
