<?xml version="1.0" encoding="UTF-8" standalone="no"?>
<!-- Creator: CorelDRAW 2021 (64-Bit) -->

<svg
   xml:space="preserve"
   width="50px"
   height="50px"
   version="1.1"
   style="shape-rendering:geometricPrecision; text-rendering:geometricPrecision; image-rendering:optimizeQuality; fill-rule:evenodd; clip-rule:evenodd"
   viewBox="0 0 9.19 9.19"
   id="svg10"
   sodipodi:docname="cart1.svg"
   inkscape:version="1.2.2 (b0a8486541, 2022-12-01)"
   xmlns:inkscape="http://www.inkscape.org/namespaces/inkscape"
   xmlns:sodipodi="http://sodipodi.sourceforge.net/DTD/sodipodi-0.dtd"
   xmlns="http://www.w3.org/2000/svg"
   xmlns:svg="http://www.w3.org/2000/svg"><sodipodi:namedview
   id="namedview224"
   pagecolor="#ffffff"
   bordercolor="#000000"
   borderopacity="0.25"
   inkscape:showpageshadow="2"
   inkscape:pageopacity="0.0"
   inkscape:pagecheckerboard="0"
   inkscape:deskcolor="#d1d1d1"
   showgrid="false"
   inkscape:zoom="14.78"
   inkscape:cx="24.966171"
   inkscape:cy="24.966171"
   inkscape:window-width="1920"
   inkscape:window-height="995"
   inkscape:window-x="0"
   inkscape:window-y="0"
   inkscape:window-maximized="1"
   inkscape:current-layer="Layer_x0020_1" />
 <defs
   id="defs4">
  <style
   type="text/css"
   id="style2">
   <![CDATA[
    .fil0 {fill:white}
   ]]>
  </style>
 </defs>
 <g
   id="Layer_x0020_1"
   inkscape:label="Layer 1">
  <metadata
   id="CorelCorpID_0Corel-Layer" />
  <path
   id="path7"
   style="display:inline;fill:#ffffff"
   d="m 4.59,0 c 2.55,0 4.6,2.06 4.6,4.59 0,2.55 -2.06,4.6 -4.6,4.6 C 2.05,9.19 0,7.13 0,4.59 0,2.05 2.06,0 4.59,0 Z m 1.7,6.9 c 0.27,0 0.5,0.23 0.5,0.49 0,0.27 -0.23,0.49 -0.5,0.49 -0.27,0 -0.5,-0.22 -0.5,-0.49 0,-0.28 0.23,-0.49 0.5,-0.49 z m -2.71,0 c 0.27,0 0.48,0.23 0.48,0.49 0,0.27 -0.22,0.49 -0.48,0.49 C 3.3,7.88 3.08,7.66 3.08,7.39 3.08,7.11 3.3,6.9 3.58,6.9 Z M 1.07,2.48 C 1.23,2.65 1.74,2.56 2,2.57 2.18,3.5 2.39,4.42 2.58,5.35 2.65,5.66 2.75,6.53 2.94,6.66 3.11,6.77 5.79,6.72 6.2,6.72 6.41,6.72 6.84,6.79 6.96,6.64 7.03,6.55 7.15,6.24 6.6,6.24 c -1.12,0 -2.23,0 -3.35,0 L 3.2,5.93 C 4.18,5.83 5.13,5.72 6.09,5.61 6.68,5.55 7.16,5.6 7.28,5.23 7.4,4.89 7.49,4.28 7.57,3.9 7.83,2.66 7.88,2.87 5.76,2.87 c -1.07,0 -2.16,0 -3.23,0 C 2.47,2.36 2.48,2.1 1.92,2.1 1.75,2.1 1.34,2.09 1.2,2.1 0.98,2.14 0.9,2.34 1.07,2.49 Z" />
 </g>
</svg>
