<?xml version="1.0" encoding="UTF-8"?>
<!DOCTYPE svg PUBLIC "-//W3C//DTD SVG 1.1//EN" "http://www.w3.org/Graphics/SVG/1.1/DTD/svg11.dtd">
<!-- Creator: CorelDRAW 2021 (64-Bit) -->
<svg xmlns="http://www.w3.org/2000/svg" xml:space="preserve" width="180px" height="180px" version="1.1" style="shape-rendering:geometricPrecision; text-rendering:geometricPrecision; image-rendering:optimizeQuality; fill-rule:evenodd; clip-rule:evenodd"
viewBox="0 0 180 180"
 xmlns:xlink="http://www.w3.org/1999/xlink"
 xmlns:xodm="http://www.corel.com/coreldraw/odm/2003">
 <defs>
  <style type="text/css">
   <![CDATA[
    .fil0 {fill:none}
    .fil1 {fill:black}
   ]]>
  </style>
 </defs>
 <g id="Layer_x0020_1">
  <metadata id="CorelCorpID_0Corel-Layer"/>
  <rect class="fil0" width="180" height="180"/>
  <path class="fil1" d="M89.9 0c49.95,0 90.1,40.35 90.1,89.9 0,49.95 -40.35,90.1 -90.1,90.1 -49.75,0 -89.9,-40.35 -89.9,-90.1 0,-17.46 4.97,-33.73 13.57,-47.51l20.46 3.18c3.52,18.21 7.64,36.23 11.36,54.45 0.91,4.04 2.08,12.94 3.86,19.19 2.48,8.71 7.41,7.43 13.21,7.55 4.64,0.09 10.45,0.04 16.54,-0.07l44 0c2.54,0 4.62,-2.08 4.62,-4.62l0 0c0,-2.54 -2.08,-4.62 -4.62,-4.62l-16.16 0 -42.07 0 -0.1 0 -6.16 0 -0.63 -3.9c22.74,-2.4 46.88,-5.78 69.45,-9.49 5.31,-0.88 8.76,-1.64 10.72,-9.5 1.34,-5.35 3.07,-13.9 5.07,-22.94 2.61,-12.59 6.81,-20.26 -7.96,-20.36 -5.85,-0.04 -14.67,0.09 -27.49,0.18 -20.96,0 -42.01,0 -62.97,0 -1.64,-9.5 -1.31,-13.85 -8.95,-14.89l-16.51 -2.24c16.48,-20.91 42.03,-34.31 70.66,-34.31zm-35.23 102.78l-0.75 -3.64 -8.37 -39.75 87.2 -0.16c1.05,-0.01 1.96,0.43 2.62,1.25 0.66,0.82 0.88,1.8 0.66,2.82l-6.75 30.08c-0.31,1.38 -1.41,2.39 -2.81,2.59l-68.06 9.46c-1.75,0.24 -3.39,-0.92 -3.74,-2.65zm43.01 43.11c1.01,6.45 7.07,12.03 14.73,11.01 6.71,-0.89 12.44,-7.05 11.35,-14.92 -0.93,-6.65 -7.2,-12.37 -15.08,-11.17 -6.52,0.99 -12.25,7.14 -11,15.08zm-41.49 -0.56c0.72,6.73 6.85,12.35 14.44,11.61 6.77,-0.67 12.48,-6.72 11.78,-14.4 -0.63,-6.86 -6.85,-12.61 -14.55,-11.81 -6.88,0.71 -12.5,6.88 -11.67,14.6z"/>
 </g>
</svg>
