<?xml version="1.0" encoding="UTF-8"?>
<!DOCTYPE svg PUBLIC "-//W3C//DTD SVG 1.1//EN" "http://www.w3.org/Graphics/SVG/1.1/DTD/svg11.dtd">
<!-- Creator: CorelDRAW 2021 (64-Bit) -->
<svg xmlns="http://www.w3.org/2000/svg" xml:space="preserve" width="50px" height="50px" version="1.1" style="shape-rendering:geometricPrecision; text-rendering:geometricPrecision; image-rendering:optimizeQuality; fill-rule:evenodd; clip-rule:evenodd"
viewBox="0 0 9.19 9.19"
 xmlns:xlink="http://www.w3.org/1999/xlink"
 xmlns:xodm="http://www.corel.com/coreldraw/odm/2003">
 <defs>
  <style type="text/css">
   <![CDATA[
    .fil0 {fill:white}
   ]]>
  </style>
 </defs>
 <g id="Layer_x0020_1">
  <metadata id="CorelCorpID_0Corel-Layer"/>
  <path class="fil0" d="M4.59 0c2.55,0 4.6,2.06 4.6,4.59 0,2.55 -2.06,4.6 -4.6,4.6 -2.54,0 -4.59,-2.06 -4.59,-4.6 0,-2.54 2.06,-4.59 4.59,-4.59zm1.7 6.9c0.27,0 0.5,0.23 0.5,0.49 0,0.27 -0.23,0.49 -0.5,0.49 -0.27,0 -0.5,-0.22 -0.5,-0.49 0,-0.28 0.23,-0.49 0.5,-0.49zm-2.71 0c0.27,0 0.48,0.23 0.48,0.49 0,0.27 -0.22,0.49 -0.48,0.49 -0.28,0 -0.5,-0.22 -0.5,-0.49 0,-0.28 0.22,-0.49 0.5,-0.49zm-2.51 -4.42c0.16,0.17 0.67,0.08 0.93,0.09 0.18,0.93 0.39,1.85 0.58,2.78 0.07,0.31 0.17,1.18 0.36,1.31 0.17,0.11 2.85,0.06 3.26,0.06 0.21,0 0.64,0.07 0.76,-0.08 0.07,-0.09 0.19,-0.4 -0.36,-0.4 -1.12,0 -2.23,0 -3.35,0l-0.05 -0.31c0.98,-0.1 1.93,-0.21 2.89,-0.32 0.59,-0.06 1.07,-0.01 1.19,-0.38 0.12,-0.34 0.21,-0.95 0.29,-1.33 0.26,-1.24 0.31,-1.03 -1.81,-1.03 -1.07,0 -2.16,0 -3.23,0 -0.06,-0.51 -0.05,-0.77 -0.61,-0.77 -0.17,0 -0.58,-0.01 -0.72,0 -0.22,0.04 -0.3,0.24 -0.13,0.39l0 -0.01zm2 3c1.12,-0.14 2.28,-0.25 3.4,-0.36 0.44,-0.04 0.4,-0.06 0.5,-0.49 0.06,-0.26 0.1,-0.47 0.15,-0.82 0.06,-0.41 0.14,-0.49 -0.45,-0.49 -0.38,0 -0.78,0.01 -0.91,0.01 -1.05,0 -2.09,0 -3.14,0l0.45 2.15z"/>
 </g>
</svg>
