<?xml version="1.0" encoding="UTF-8"?>
<!DOCTYPE svg PUBLIC "-//W3C//DTD SVG 1.1//EN" "http://www.w3.org/Graphics/SVG/1.1/DTD/svg11.dtd">
<!-- Creator: CorelDRAW 2021 (64-Bit) -->
<svg xmlns="http://www.w3.org/2000/svg" xml:space="preserve" width="180px" height="180px" version="1.1" style="shape-rendering:geometricPrecision; text-rendering:geometricPrecision; image-rendering:optimizeQuality; fill-rule:evenodd; clip-rule:evenodd"
viewBox="0 0 180 180"
 xmlns:xlink="http://www.w3.org/1999/xlink"
 xmlns:xodm="http://www.corel.com/coreldraw/odm/2003">
 <defs>
  <style type="text/css">
   <![CDATA[
    .fil0 {fill:none}
    .fil1 {fill:black}
   ]]>
  </style>
 </defs>
 <g id="Layer_x0020_1">
  <metadata id="CorelCorpID_0Corel-Layer"/>
  <rect class="fil0" width="180" height="180"/>
  <path class="fil1" d="M89.9 0c49.95,0 90.1,40.35 90.1,89.9 0,49.95 -40.35,90.1 -90.1,90.1 -49.75,0 -89.9,-40.35 -89.9,-90.1 0,-17.46 4.97,-33.73 13.57,-47.51l20.46 3.18c3.52,18.21 7.63,36.23 11.36,54.45 0.91,4.04 2.08,12.94 3.86,19.19 2.48,8.71 7.41,7.43 13.21,7.55 4.64,0.09 10.45,0.04 16.54,-0.07l44 0c2.54,0 4.62,-2.08 4.62,-4.62l0 0c0,-2.54 -2.08,-4.62 -4.62,-4.62l-16.16 0 -42.07 0 -0.1 0 -6.16 0 -0.63 -3.9c22.74,-2.4 46.87,-5.78 69.45,-9.49 5.31,-0.88 9.15,-3.07 11.12,-10.93 1.33,-5.35 2.67,-12.47 4.67,-21.51 4.8,-22.89 5.26,-20.47 -35.45,-20.18 -20.96,0 -42.31,0 -63.26,0 -1.05,-8.87 -1.02,-13.85 -8.66,-14.89l-16.51 -2.24c16.48,-20.91 42.03,-34.31 70.66,-34.31zm0.1 89.01l-9.27 9.27c-2.51,2.52 -6.61,2.52 -9.12,0 -2.52,-2.51 -2.52,-6.61 0,-9.12l9.27 -9.27 -9.27 -9.27c-2.52,-2.52 -2.52,-6.61 -0.01,-9.13 2.52,-2.51 6.62,-2.51 9.13,0l9.27 9.27 9.27 -9.27c2.51,-2.51 6.61,-2.51 9.13,0 2.51,2.52 2.51,6.61 0,9.13l-9.28 9.27 9.28 9.27c2.51,2.51 2.51,6.61 0,9.12 -2.52,2.52 -6.62,2.52 -9.13,0l-9.27 -9.27zm7.68 56.88c1.01,6.45 7.07,12.03 14.73,11.01 6.71,-0.89 12.44,-7.05 11.35,-14.92 -0.93,-6.65 -7.2,-12.37 -15.08,-11.17 -6.52,0.99 -12.25,7.14 -11,15.08zm-41.49 -0.56c0.72,6.73 6.85,12.35 14.44,11.61 6.77,-0.67 12.48,-6.73 11.78,-14.4 -0.63,-6.86 -6.85,-12.61 -14.55,-11.81 -6.88,0.71 -12.5,6.88 -11.67,14.6z"/>
 </g>
</svg>
