<?xml version="1.0" encoding="UTF-8" standalone="no"?>
<!-- Created with Inkscape (http://www.inkscape.org/) -->

<svg
   width="47.683102mm"
   height="47.686108mm"
   viewBox="0 0 47.683102 47.686108"
   version="1.1"
   id="svg1"
   inkscape:version="1.4.2 (ebf0e940d0, 2025-05-08)"
   xmlns:inkscape="http://www.inkscape.org/namespaces/inkscape"
   xmlns:sodipodi="http://sodipodi.sourceforge.net/DTD/sodipodi-0.dtd"
   xmlns="http://www.w3.org/2000/svg"
   xmlns:svg="http://www.w3.org/2000/svg">
  <sodipodi:namedview
     id="namedview1"
     pagecolor="#505050"
     bordercolor="#ffffff"
     borderopacity="1"
     inkscape:showpageshadow="0"
     inkscape:pageopacity="0"
     inkscape:pagecheckerboard="1"
     inkscape:deskcolor="#505050"
     inkscape:document-units="mm"
     inkscape:zoom="0.76791526"
     inkscape:cx="149.10499"
     inkscape:cy="274.7699"
     inkscape:window-width="2048"
     inkscape:window-height="1080"
     inkscape:window-x="0"
     inkscape:window-y="0"
     inkscape:window-maximized="1"
     inkscape:current-layer="layer1" />
  <defs
     id="defs1" />
  <g
     inkscape:label="Layer 1"
     inkscape:groupmode="layer"
     id="layer1"
     transform="translate(-65.616667,-75.670543)">
    <path
       class="fil1"
       d="m 89.433789,75.670833 c 13.229021,0 23.865981,10.688527 23.865981,23.817122 0,13.231735 -10.68853,23.868695 -23.865981,23.868695 -13.180165,0 -23.817122,-10.68853 -23.817122,-23.868695 0,-4.625 1.319102,-8.937867 3.593603,-12.585755 l 5.420262,0.841403 c 0.933685,4.825851 2.024794,9.597418 3.010049,14.423267 0.241564,1.07211 0.550983,3.42804 1.023255,5.08642 0.656836,2.30707 1.962368,1.96779 3.498606,1.99765 1.229533,0.0244 2.768486,0.0136 4.380722,-0.0163 h 11.657497 c 0.673122,0 1.224105,-0.55098 1.224105,-1.2241 v -0.003 c 0,-0.67312 -0.550983,-1.22139 -1.224105,-1.22139 h -4.280297 -11.144513 -0.02714 -1.631235 l -0.16828,-1.03411 c 6.022814,-0.63512 12.417473,-1.53081 18.399574,-2.51606 1.40595,-0.23071 2.42378,-0.80883 2.94491,-2.89334 0.35284,-1.416815 0.70569,-3.303185 1.23767,-5.699826 1.27025,-6.060813 1.39239,-5.420261 -9.391133,-5.344263 -5.553257,0 -11.20694,0 -16.760197,0 -0.276849,-2.347785 -0.268706,-3.669601 -2.293501,-3.943736 l -4.372579,-0.59441 c 4.364437,-5.539686 11.133656,-9.089862 18.719851,-9.089862 z m 0.784404,24.585237 1.270247,-1.270243 h -9.04915 c -0.901115,0 -1.642092,-0.740977 -1.642092,-1.642092 0,-0.903829 0.740977,-1.642092 1.642092,-1.642092 h 9.04915 l -1.270247,-1.272961 c -0.640552,-0.637837 -0.640552,-1.682805 0,-2.320642 v 0 c 0.637837,-0.640552 1.682805,-0.640552 2.320643,0 l 4.065874,4.06316 0.0081,0.01086 h 0.0027 c 0.09771,0.09771 0.181851,0.208993 0.252421,0.325704 l 0.019,0.03529 v 0 l 0.019,0.03528 0.019,0.03529 v 0 l 0.01628,0.03528 v 0.0027 l 0.01628,0.03528 v 0 l 0.01629,0.038 0.01357,0.03529 v 0 l 0.01357,0.038 v 0 l 0.01357,0.038 v 0 l 0.01086,0.038 v 0 l 0.01086,0.038 v 0 l 0.01086,0.038 v 0 l 0.0081,0.038 v 0.0027 l 0.0081,0.038 v 0 l 0.0081,0.038 v 0 l 0.0054,0.04071 v 0 l 0.0054,0.038 v 0 l 0.0027,0.038 v 0.0027 l 0.0054,0.038 v 0 0.04071 l 0.0027,0.038 v 0 0.038 0.0027 0.038 0 l -0.0027,0.04071 v 0.038 0 l -0.0054,0.04071 v 0 l -0.0027,0.038 v 0 l -0.0054,0.038 v 0.0027 l -0.0054,0.038 v 0 l -0.0081,0.038 v 0 l -0.0081,0.04071 v 0 l -0.0081,0.038 v 0 l -0.01086,0.038 v 0 l -0.01086,0.038 v 0 l -0.01086,0.038 v 0 l -0.01357,0.038 -0.01357,0.038 v 0 l -0.01357,0.03528 v 0.0027 l -0.01629,0.03528 v 0 l -0.01628,0.038 v 0 l -0.01628,0.03528 v 0 l -0.019,0.03529 v 0 l -0.019,0.03529 v 0 l -0.019,0.03528 c -0.07057,0.116711 -0.15471,0.227993 -0.252421,0.328419 h -0.0027 l -0.02171,0.02171 -4.052303,4.052307 c -0.637838,0.63784 -1.682806,0.63784 -2.320643,0 -0.640552,-0.64055 -0.640552,-1.68552 0,-2.32336 z m 1.272961,14.065 c 0.268706,1.70723 1.875513,3.18376 3.903022,2.91505 1.777802,-0.23613 3.295041,-1.86737 3.007336,-3.95188 -0.244278,-1.76151 -1.908084,-3.27875 -3.995305,-2.95848 -1.726233,0.26328 -3.243472,1.88909 -2.915053,3.99531 z M 80.50135,114.17179 c 0.192709,1.78051 1.815801,3.27061 3.824311,3.07519 1.796801,-0.17643 3.308612,-1.78052 3.121332,-3.81346 -0.168281,-1.81851 -1.813087,-3.34118 -3.854167,-3.12947 -1.821229,0.18999 -3.308612,1.82123 -3.091476,3.86774 z"
       id="path1"
       style="clip-rule:evenodd;fill:#000000;fill-rule:evenodd;stroke-width:0.27142;image-rendering:optimizeQuality;shape-rendering:geometricPrecision;text-rendering:geometricPrecision" />
  </g>
</svg>
