<?xml version="1.0" encoding="UTF-8" standalone="no"?>
<!-- Creator: CorelDRAW 2021 (64-Bit) -->

<svg
   xml:space="preserve"
   width="180.21875"
   height="180.23047"
   version="1.1"
   style="clip-rule:evenodd;fill-rule:evenodd;image-rendering:optimizeQuality;shape-rendering:geometricPrecision;text-rendering:geometricPrecision"
   viewBox="0 0 175.67919 175.55215"
   id="svg12"
   sodipodi:docname="cart_edit.svg"
   inkscape:version="1.2.2 (b0a8486541, 2022-12-01)"
   xmlns:inkscape="http://www.inkscape.org/namespaces/inkscape"
   xmlns:sodipodi="http://sodipodi.sourceforge.net/DTD/sodipodi-0.dtd"
   xmlns="http://www.w3.org/2000/svg"
   xmlns:svg="http://www.w3.org/2000/svg"><sodipodi:namedview
   id="namedview14"
   pagecolor="#505050"
   bordercolor="#eeeeee"
   borderopacity="1"
   inkscape:showpageshadow="0"
   inkscape:pageopacity="0"
   inkscape:pagecheckerboard="0"
   inkscape:deskcolor="#505050"
   showgrid="false"
   inkscape:zoom="4.2340426"
   inkscape:cx="81.600503"
   inkscape:cy="86.20603"
   inkscape:window-width="1920"
   inkscape:window-height="996"
   inkscape:window-x="0"
   inkscape:window-y="0"
   inkscape:window-maximized="1"
   inkscape:current-layer="Layer_x0020_1" />
 <defs
   id="defs4">
  <style
   type="text/css"
   id="style2">
   <![CDATA[
    .fil0 {fill:none}
    .fil1 {fill:black}
   ]]>
  </style>
 </defs>
 <g
   id="Layer_x0020_1"
   inkscape:label="Layer 1"
   inkscape:groupmode="layer"
   transform="translate(0,-7.5014738)">
  <metadata
   id="CorelCorpID_0Corel-Layer" />
  
  <path
   id="path854"
   style="fill:#000000"
   d="M 87.750108,7.4292576 C 59.800192,7.4292576 34.860289,20.5094 18.78034,40.91934 l 16.109129,2.19142 c 7.459979,1.009997 7.429633,5.878897 8.44963,14.52887 h 61.750071 c 39.72991,-0.28 39.28005,-2.639517 34.60008,19.690417 -1.96,8.829973 -3.25991,15.780334 -4.55991,21.000319 -1.92,7.679974 -5.66858,9.810094 -10.84858,10.660094 -22.03994,3.62997 -45.601301,6.93022 -67.791235,9.27022 l 0.62068,3.80976 h 6.010699 0.099 41.060106 15.77023 c 2.47997,0 4.5104,2.01898 4.5104,4.49898 v 0.0114 c 0,2.48 -2.03043,4.5085 -4.5104,4.5085 H 77.099539 c -5.939982,0.11 -11.609605,0.15093 -16.139593,0.0609 -5.659982,-0.11 -10.469594,1.13938 -12.889588,-7.36059 -1.739994,-6.10992 -2.879779,-14.79033 -3.769776,-18.7403 C 40.670594,87.269369 36.650196,69.690659 33.210205,51.910713 L 13.239911,48.809215 C 4.8599359,62.249176 0,78.139417 0,95.179366 c 0,48.559854 39.190255,87.940504 87.750108,87.940504 48.549852,0 87.929082,-39.19065 87.929082,-87.940504 0,-48.369856 -39.18923,-87.7501084 -87.929082,-87.7501084 z M 76.985303,66.220631 c -1.549998,0 -3.101222,0.588749 -4.276221,1.768748 l -14.978196,14.970581 -0.03046,0.03998 h -0.0095 c -0.36,0.359999 -0.671021,0.769474 -0.93102,1.199474 l -0.07045,0.131371 -0.06854,0.129467 -0.07044,0.129467 -0.06093,0.129467 v 0.01142 l -0.05902,0.129467 -0.06093,0.138986 -0.0495,0.131371 -0.0495,0.138987 -0.05141,0.140891 -0.03998,0.138986 -0.03998,0.140891 -0.03998,0.138987 -0.02856,0.14089 v 0.0095 l -0.03046,0.140891 -0.03046,0.138986 -0.01904,0.15041 -0.02094,0.140891 -0.0095,0.138987 v 0.0095 l -0.02094,0.140891 v 0.15041 l -0.0095,0.138987 v 0.140891 0.0095 0.140891 l 0.0095,0.148506 v 0.140891 l 0.02094,0.15041 0.0095,0.138987 0.02094,0.14089 v 0.0095 l 0.01904,0.138987 0.03046,0.14089 0.03046,0.150411 0.02856,0.138986 0.03998,0.140891 0.03998,0.138987 0.03998,0.14089 0.05141,0.138987 0.0495,0.140891 0.0495,0.129467 v 0.01142 l 0.06093,0.129467 0.05902,0.138987 0.06093,0.131371 0.07044,0.129467 0.06854,0.129467 0.07045,0.129467 c 0.259999,0.43 0.57102,0.840898 0.93102,1.210898 h 0.0095 l 0.07997,0.07997 14.928694,14.930598 c 2.349998,2.35 6.20054,2.35 8.550538,0 2.359998,-2.35999 2.359998,-6.21006 0,-8.560057 l -4.679854,-4.679854 h 33.339676 c 3.32,0 6.05068,-2.730684 6.05068,-6.050681 0,-3.329996 -2.73068,-6.050681 -6.05068,-6.050681 H 76.579766 l 4.679854,-4.689373 c 2.359998,-2.349998 2.359998,-6.20054 0,-8.550538 -1.174999,-1.179999 -2.724319,-1.768748 -4.274317,-1.768748 z m 31.203467,68.731779 c 6.67472,0.0342 11.78647,5.17645 12.60209,11.05801 1.06,7.67997 -4.53088,13.68933 -11.08085,14.55933 -7.47,0.99 -13.39037,-4.45008 -14.380367,-10.74005 -1.209997,-7.76 4.380069,-13.74927 10.740057,-14.71927 0.72093,-0.11062 1.42858,-0.16156 2.11907,-0.15802 z m -40.566982,0.006 c 6.86431,-0.002 12.22647,5.32131 12.80772,11.60253 0.689997,7.49 -4.87974,13.39908 -11.499722,14.04908 -7.399976,0.72 -13.379065,-4.77027 -14.089062,-11.33027 -0.799997,-7.53997 4.679314,-13.54899 11.389293,-14.24899 0.47,-0.0488 0.934152,-0.0722 1.391771,-0.0724 z" />
 </g>
</svg>
