<?xml version="1.0" encoding="UTF-8"?>
<!DOCTYPE svg PUBLIC "-//W3C//DTD SVG 1.1//EN" "http://www.w3.org/Graphics/SVG/1.1/DTD/svg11.dtd">
<!-- Creator: CorelDRAW 2021 (64-Bit) -->
<svg xmlns="http://www.w3.org/2000/svg" xml:space="preserve" width="50px" height="50px" version="1.1" style="shape-rendering:geometricPrecision; text-rendering:geometricPrecision; image-rendering:optimizeQuality; fill-rule:evenodd; clip-rule:evenodd"
viewBox="0 0 20.73 20.73"
 xmlns:xlink="http://www.w3.org/1999/xlink"
 xmlns:xodm="http://www.corel.com/coreldraw/odm/2003">
 <defs>
  <style type="text/css">
   <![CDATA[
    .fil0 {fill:white}
   ]]>
  </style>
 </defs>
 <g id="Layer_x0020_1">
  <metadata id="CorelCorpID_0Corel-Layer"/>
  <path class="fil0" d="M10.37 0c5.74,0 10.36,4.65 10.36,10.37 0,5.74 -4.65,10.36 -10.36,10.36 -5.75,0 -10.37,-4.65 -10.37,-10.36 0,-5.75 4.65,-10.37 10.37,-10.37zm3.5 3.08c2.35,0 4.26,1.9 4.26,4.26 0,2.35 -1.91,4.26 -4.26,4.26 -2.35,0 -4.26,-1.91 -4.26,-4.26 0,-2.36 1.91,-4.26 4.26,-4.26zm-0.47 13.76c0.62,0 1.12,0.51 1.12,1.09 0,0.62 -0.5,1.12 -1.12,1.12 -0.62,0 -1.12,-0.5 -1.12,-1.12 0,-0.61 0.5,-1.09 1.12,-1.09zm2.57 -5.11c-0.35,0.19 -0.72,0.32 -1.12,0.4 -0.13,0.58 -0.22,0.61 -1.03,0.69 -2.54,0.24 -5.15,0.49 -7.67,0.81l-1.03 -4.85 4.12 0c-0.1,-0.33 -0.17,-0.68 -0.2,-1.04l-4.12 0c-0.14,-1.14 -0.12,-1.73 -1.38,-1.73 -0.38,0 -1.3,-0.03 -1.62,0 -0.5,0.08 -0.68,0.53 -0.3,0.88l0 -0.03c0.36,0.38 1.5,0.18 2.09,0.21 0.42,2.09 0.89,4.18 1.33,6.27 0.15,0.71 0.38,2.65 0.79,2.94 0.39,0.27 6.45,0.15 7.37,0.15 0.47,0 1.44,0.15 1.7,-0.17 0.18,-0.21 0.45,-0.92 -0.79,-0.92 -2.53,0 -5.04,0 -7.57,0l-0.12 -0.7c2.21,-0.21 4.36,-0.48 6.54,-0.71 1.33,-0.15 2.42,-0.03 2.68,-0.86 0.12,-0.35 0.23,-0.83 0.33,-1.34zm-8.69 5.11c0.62,0 1.09,0.51 1.09,1.09 0,0.62 -0.5,1.12 -1.09,1.12 -0.62,0 -1.12,-0.5 -1.12,-1.12 0,-0.61 0.5,-1.09 1.12,-1.09zm8.36 -12.48l1.04 1.03 -1.84 1.84 1.84 1.84 -1.04 1.04 -1.84 -1.84 -1.83 1.84 -1.04 -1.04 1.84 -1.84 -1.84 -1.84 1.04 -1.03 1.84 1.83 1.83 -1.83z"/>
 </g>
</svg>
