<?xml version="1.0" encoding="UTF-8"?>
<!DOCTYPE svg PUBLIC "-//W3C//DTD SVG 1.1//EN" "http://www.w3.org/Graphics/SVG/1.1/DTD/svg11.dtd">
<!-- Creator: CorelDRAW 2021 (64-Bit) -->
<svg xmlns="http://www.w3.org/2000/svg" xml:space="preserve" width="180px" height="180px" version="1.1" style="shape-rendering:geometricPrecision; text-rendering:geometricPrecision; image-rendering:optimizeQuality; fill-rule:evenodd; clip-rule:evenodd"
viewBox="0 0 180 180"
 xmlns:xlink="http://www.w3.org/1999/xlink"
 xmlns:xodm="http://www.corel.com/coreldraw/odm/2003">
 <defs>
  <style type="text/css">
   <![CDATA[
    .fil0 {fill:none}
    .fil1 {fill:black}
   ]]>
  </style>
 </defs>
 <g id="Layer_x0020_1">
  <metadata id="CorelCorpID_0Corel-Layer"/>
  <rect class="fil0" width="180" height="180"/>
  <path class="fil1" d="M90 0c49.69,0 90,40.31 90,90 0,49.69 -40.31,90 -90,90 -49.69,0 -90,-40.31 -90,-90 0,-49.69 40.31,-90 90,-90zm-17.07 143.51l0 0c6.54,0 11.89,-5.34 11.89,-11.88l0 0c0,-6.54 -5.35,-11.88 -11.89,-11.88l0 0c-6.53,0 -11.88,5.34 -11.88,11.88l0 0c0,6.54 5.35,11.88 11.88,11.88zm0 -83.26l0 0c6.54,0 11.89,-5.34 11.89,-11.88l0 0c0,-6.54 -5.35,-11.88 -11.89,-11.88l0 0c-6.53,0 -11.88,5.34 -11.88,11.88l0 0c0,6.54 5.35,11.88 11.88,11.88zm30.68 41.63l0 0c6.53,0 11.88,-5.34 11.88,-11.88l0 0c0,-6.54 -5.35,-11.88 -11.88,-11.88l0 0c-6.54,0 -11.89,5.34 -11.89,11.88l0 0c0,6.54 5.35,11.88 11.89,11.88zm-57.86 -20.11l40.63 0c-1.2,2.49 -1.88,5.29 -1.88,8.23l0 0c0,2.94 0.68,5.74 1.88,8.23l-40.63 0c-4.53,0 -8.23,-3.7 -8.23,-8.23l0 0c0,-4.53 3.7,-8.23 8.23,-8.23zm75.08 0l18.81 0c4.53,0 8.23,3.7 8.23,8.23l0 0c0,4.53 -3.7,8.23 -8.23,8.23l-18.81 0c1.21,-2.49 1.88,-5.29 1.88,-8.23l0 0c0,-2.94 -0.68,-5.74 -1.88,-8.23zm-75.07 41.63l9.95 0c-1.2,2.49 -1.88,5.29 -1.88,8.23l0 0c0,2.94 0.68,5.74 1.88,8.23l-9.95 0c-4.53,0 -8.24,-3.7 -8.24,-8.23 0,-4.53 3.71,-8.23 8.24,-8.23zm44.4 0l49.47 0c4.53,0 8.24,3.7 8.24,8.23 0,4.53 -3.71,8.23 -8.24,8.23l-49.47 0c1.2,-2.49 1.88,-5.29 1.88,-8.23l0 0c0,-2.94 -0.68,-5.74 -1.88,-8.23zm-44.4 -83.27l9.95 0c-1.2,2.5 -1.88,5.29 -1.88,8.24l0 0c0,2.94 0.68,5.74 1.88,8.23l-9.95 0c-4.53,0 -8.24,-3.7 -8.24,-8.23 0,-4.53 3.71,-8.24 8.24,-8.24zm44.4 0l49.47 0c4.53,0 8.24,3.71 8.24,8.24 0,4.53 -3.71,8.23 -8.24,8.23l-49.47 0c1.2,-2.49 1.88,-5.29 1.88,-8.23l0 0c0,-2.95 -0.68,-5.74 -1.88,-8.24z"/>
 </g>
</svg>
