<?xml version="1.0" encoding="UTF-8"?>
<!DOCTYPE svg PUBLIC "-//W3C//DTD SVG 1.1//EN" "http://www.w3.org/Graphics/SVG/1.1/DTD/svg11.dtd">
<!-- Creator: CorelDRAW 2021 (64-Bit) -->
<svg xmlns="http://www.w3.org/2000/svg" xml:space="preserve" width="50px" height="50px" version="1.1" style="shape-rendering:geometricPrecision; text-rendering:geometricPrecision; image-rendering:optimizeQuality; fill-rule:evenodd; clip-rule:evenodd"
viewBox="0 0 20.67 20.67"
 xmlns:xlink="http://www.w3.org/1999/xlink"
 xmlns:xodm="http://www.corel.com/coreldraw/odm/2003">
 <defs>
  <style type="text/css">
   <![CDATA[
    .fil0 {fill:white}
   ]]>
  </style>
 </defs>
 <g id="Layer_x0020_1">
  <metadata id="CorelCorpID_0Corel-Layer"/>
  <path class="fil0" d="M16.32 4.35c3.31,3.3 3.31,8.67 0,11.97 -3.3,3.31 -8.67,3.31 -11.97,0 -3.31,-3.3 -3.31,-8.67 0,-11.97 3.3,-3.31 8.67,-3.31 11.97,0zm-2.27 0.03l2.06 2.07 -3.65 3.65 3.65 3.65 -2.06 2.07 -3.66 -3.66 -3.65 3.66 -2.06 -2.07 3.65 -3.65 -3.65 -3.66 2.06 -2.06 3.65 3.66 3.66 -3.66zm3.59 -1.35c4.04,4.03 4.04,10.58 0,14.61 -4.03,4.04 -10.58,4.04 -14.61,0 -4.04,-4.03 -4.04,-10.58 0,-14.61 4.03,-4.04 10.58,-4.04 14.61,0z"/>
 </g>
</svg>
