<?xml version="1.0" encoding="UTF-8"?>
<!DOCTYPE svg PUBLIC "-//W3C//DTD SVG 1.1//EN" "http://www.w3.org/Graphics/SVG/1.1/DTD/svg11.dtd">
<!-- Creator: CorelDRAW 2021 (64-Bit) -->
<svg xmlns="http://www.w3.org/2000/svg" xml:space="preserve" width="180px" height="180px" version="1.1" style="shape-rendering:geometricPrecision; text-rendering:geometricPrecision; image-rendering:optimizeQuality; fill-rule:evenodd; clip-rule:evenodd"
viewBox="0 0 180 180"
 xmlns:xlink="http://www.w3.org/1999/xlink"
 xmlns:xodm="http://www.corel.com/coreldraw/odm/2003">
 <defs>
  <style type="text/css">
   <![CDATA[
    .fil0 {fill:none}
    .fil1 {fill:black;fill-rule:nonzero}
   ]]>
  </style>
 </defs>
 <g id="Layer_x0020_1">
  <metadata id="CorelCorpID_0Corel-Layer"/>
  <rect class="fil0" width="180" height="180"/>
  <path id="path42" class="fil1" d="M90 180c-49.92,0 -90,-40.08 -90,-90 0,-49.92 40.08,-90 90,-90 49.92,0 90,40.08 90,90 0,49.92 -40.08,90 -90,90zm-21.7 -68.71l46.91 0c4.68,0 8.52,3.84 8.52,8.53l0 0c0,4.69 -3.84,8.52 -8.52,8.52l-46.91 0c-4.69,0 -8.52,-3.83 -8.52,-8.52l0 0c0,-4.69 3.83,-8.53 8.52,-8.53zm35.19 -34.5c-2.96,0 -4.43,-2.95 -4.43,-5.91l0 -2.17 -30.76 0c-4.68,0 -8.52,-3.84 -8.52,-8.53l0 0c0,-4.69 3.83,-8.53 8.52,-8.53l30.76 0 0 -19.19 -51.55 0 0 113.45 88.49 0 0 -69.12 -32.51 0 0 0zm-35.19 4.68l46.91 0c4.69,0 8.52,3.84 8.52,8.53 0,4.69 -3.83,8.53 -8.52,8.53l-46.91 0c-4.69,0 -8.52,-3.84 -8.52,-8.53 0,-4.69 3.83,-8.53 8.52,-8.53zm39.62 -41.62l0 26.6 25.12 0 -25.12 -26.6z"/>
 </g>
</svg>
