<?xml version="1.0" encoding="UTF-8" standalone="no"?>
<svg
   width="33.299999mm"
   height="33mm"
   viewBox="0 0 33.299999 33"
   version="1.1"
   id="svg1262"
   sodipodi:docname="document_icon.svg"
   inkscape:version="1.1.2 (0a00cf5339, 2022-02-04)"
   xmlns:inkscape="http://www.inkscape.org/namespaces/inkscape"
   xmlns:sodipodi="http://sodipodi.sourceforge.net/DTD/sodipodi-0.dtd"
   xmlns="http://www.w3.org/2000/svg"
   xmlns:svg="http://www.w3.org/2000/svg"
   xmlns:rdf="http://www.w3.org/1999/02/22-rdf-syntax-ns#"
   xmlns:cc="http://creativecommons.org/ns#"
   xmlns:dc="http://purl.org/dc/elements/1.1/">
  <sodipodi:namedview
     id="namedview13"
     pagecolor="#ffffff"
     bordercolor="#666666"
     borderopacity="1.0"
     inkscape:pageshadow="2"
     inkscape:pageopacity="0.0"
     inkscape:pagecheckerboard="0"
     inkscape:document-units="mm"
     showgrid="false"
     inkscape:zoom="3.571875"
     inkscape:cx="103.58705"
     inkscape:cy="76.430446"
     inkscape:window-width="1908"
     inkscape:window-height="1027"
     inkscape:window-x="0"
     inkscape:window-y="0"
     inkscape:window-maximized="1"
     inkscape:current-layer="svg1262" />
  <defs
     id="defs1256" />
  <metadata
     id="metadata1259">
    <rdf:RDF>
      <cc:Work
         rdf:about="">
        <dc:format>image/svg+xml</dc:format>
        <dc:type
           rdf:resource="http://purl.org/dc/dcmitype/StillImage" />
      </cc:Work>
    </rdf:RDF>
  </metadata>
  <path
     id="path42"
     style="fill:#ffffff;fill-opacity:1;fill-rule:nonzero;stroke:none;stroke-width:0.133262"
     d="M 62.927734 0 C 28.173291 -9.4739031e-15 0 28.174505 0 62.929688 C 0 97.68487 28.173291 125.85742 62.927734 125.85742 C 97.682184 125.85742 125.85742 97.68487 125.85742 62.929688 C 125.85742 28.174505 97.682184 0 62.927734 0 z M 36.552734 23.958984 L 81.720703 23.958984 C 82.20844 23.958984 82.674843 24.16806 83 24.533203 L 94.720703 37.683594 C 95.001885 37.998098 95.15625 38.401773 95.15625 38.824219 L 95.15625 97.429688 C 95.15625 98.377191 94.386939 99.146484 93.439453 99.146484 L 36.552734 99.146484 C 35.605249 99.146484 34.835938 98.377191 34.835938 97.429688 L 34.835938 25.673828 C 34.835938 24.726323 35.605249 23.958984 36.552734 23.958984 z M 38.267578 27.390625 L 38.267578 95.714844 L 91.724609 95.714844 L 91.724609 40.826172 L 82.003906 40.826172 C 81.056424 40.826172 80.289062 40.05688 80.289062 39.109375 L 80.289062 27.390625 L 38.267578 27.390625 z M 83.720703 30.496094 L 83.720703 37.394531 L 89.869141 37.394531 L 83.720703 30.496094 z M 45.984375 46.542969 L 83.435547 46.542969 C 84.381699 46.542969 85.150391 47.310309 85.150391 48.257812 C 85.150391 49.205317 84.381699 49.972656 83.435547 49.972656 L 45.984375 49.972656 C 45.036893 49.972656 44.269531 49.205317 44.269531 48.257812 C 44.269531 47.310309 45.036893 46.542969 45.984375 46.542969 z M 45.984375 60.335938 L 83.435547 60.335938 C 84.381699 60.335937 85.150391 61.105229 85.150391 62.052734 C 85.150391 62.998909 84.381699 63.767578 83.435547 63.767578 L 45.984375 63.767578 C 45.036893 63.767578 44.269531 62.998909 44.269531 62.052734 C 44.269531 61.105229 45.036893 60.335938 45.984375 60.335938 z M 45.984375 75.630859 L 83.435547 75.630859 C 84.381699 75.630859 85.150391 76.398198 85.150391 77.345703 C 85.150391 78.293208 84.381699 79.060547 83.435547 79.060547 L 45.984375 79.060547 C 45.036893 79.060547 44.269531 78.293208 44.269531 77.345703 C 44.269531 76.398198 45.036893 75.630859 45.984375 75.630859 z "
     transform="scale(0.26458333)" />
</svg>
