<?xml version="1.0" encoding="UTF-8"?>
<!DOCTYPE svg PUBLIC "-//W3C//DTD SVG 1.1//EN" "http://www.w3.org/Graphics/SVG/1.1/DTD/svg11.dtd">
<!-- Creator: CorelDRAW 2021 (64-Bit) -->
<svg xmlns="http://www.w3.org/2000/svg" xml:space="preserve" width="50px" height="50px" version="1.1" style="shape-rendering:geometricPrecision; text-rendering:geometricPrecision; image-rendering:optimizeQuality; fill-rule:evenodd; clip-rule:evenodd"
viewBox="0 0 2.38 2.38"
 xmlns:xlink="http://www.w3.org/1999/xlink"
 xmlns:xodm="http://www.corel.com/coreldraw/odm/2003">
 <defs>
  <style type="text/css">
   <![CDATA[
    .fil0 {fill:white;fill-rule:nonzero}
   ]]>
  </style>
 </defs>
 <g id="Layer_x0020_1">
  <metadata id="CorelCorpID_0Corel-Layer"/>
  <path id="path42" class="fil0" d="M1.19 2.38c-0.66,0 -1.19,-0.53 -1.19,-1.19 0,-0.66 0.53,-1.19 1.19,-1.19 0.66,0 1.19,0.53 1.19,1.19 0,0.66 -0.53,1.19 -1.19,1.19zm0.41 -0.88l-0.83 0c-0.02,0 -0.03,0.02 -0.03,0.04 0,0.02 0.01,0.04 0.03,0.04l0.83 0c0.02,0 0.03,-0.02 0.03,-0.04 0,-0.02 -0.01,-0.04 -0.03,-0.04zm0 -0.34l-0.83 0c-0.02,0 -0.03,0.02 -0.03,0.04 0,0.02 0.01,0.04 0.03,0.04l0.83 0c0.05,0 0.05,-0.08 0,-0.08zm0 -0.3l-0.83 0c-0.02,0 -0.03,0.02 -0.03,0.04 0,0.02 0.01,0.04 0.03,0.04l0.83 0c0.02,0 0.03,-0.02 0.03,-0.04 0,-0.02 -0.01,-0.04 -0.03,-0.04zm-0.01 -0.37l0 0.18 0.17 0 -0.17 -0.18zm-0.03 0.25c-0.02,0 -0.03,-0.02 -0.03,-0.04 0,-0.09 0,-0.18 0,-0.26l-0.92 0 0 1.5 1.17 0c0,-0.4 0,-0.8 0,-1.2l-0.22 0z"/>
 </g>
</svg>
