<?xml version="1.0" encoding="UTF-8"?>
<!DOCTYPE svg PUBLIC "-//W3C//DTD SVG 1.1//EN" "http://www.w3.org/Graphics/SVG/1.1/DTD/svg11.dtd">
<!-- Creator: CorelDRAW 2021 (64-Bit) -->
<svg xmlns="http://www.w3.org/2000/svg" xml:space="preserve" width="180px" height="180px" version="1.1" style="shape-rendering:geometricPrecision; text-rendering:geometricPrecision; image-rendering:optimizeQuality; fill-rule:evenodd; clip-rule:evenodd"
viewBox="0 0 180 180"
 xmlns:xlink="http://www.w3.org/1999/xlink"
 xmlns:xodm="http://www.corel.com/coreldraw/odm/2003">
 <defs>
  <style type="text/css">
   <![CDATA[
    .fil0 {fill:none}
    .fil1 {fill:black;fill-rule:nonzero}
   ]]>
  </style>
 </defs>
 <g id="Layer_x0020_1">
  <metadata id="CorelCorpID_0Corel-Layer"/>
  <rect class="fil0" width="180" height="180"/>
  <path class="fil1" d="M74.91 109.49c-4.24,-0.48 -19.22,0.57 -21.69,-0.36 -0.04,-0.41 -0.4,-22.86 0,-24.64l0.24 -0.4 21.41 -0.04c0.77,-5.54 -0.57,-17.05 0.64,-25.37 2.02,-14.41 11.55,-24.11 25.89,-26 3.51,-0.45 22.94,-0.45 25.08,0.68 0.4,0.49 0.32,-0.77 0.36,0.89l-0.08 21.4c-1.57,0.57 -12.03,0.37 -14.29,0.29 -6.59,-0.53 -10.42,2.86 -11.27,8.4 -0.44,3.07 -0.61,16.52 -0.16,19.67l24.83 0.04 -3.23 24.91c-2.06,0.85 -17.81,-0.04 -21.64,0.29l-0.04 70.35c9.61,-0.2 25.72,-6.46 32.67,-10.5 8.04,-4.64 9.57,-6.06 15.75,-11.15 6.1,-5 13.21,-13.89 17.41,-20.63 15.75,-25.04 17.69,-59.33 4.36,-85.9 -2.55,-5.17 -5.01,-9.13 -8.04,-13.53l-7.31 -8.93c-15.83,-17.16 -39.5,-28.1 -63.44,-28.55 -49.15,-0.85 -87.52,35.82 -91.92,80.89 -1.29,13.13 0.32,26.58 4.24,37.93 3.8,10.9 8.68,19.22 15.55,27.9 1.57,1.98 3.31,4.12 4.92,5.7 1.09,1.01 1.82,1.65 2.71,2.58 1.17,1.21 1.78,1.54 2.95,2.71 2.54,2.62 9.09,6.9 12.44,9.08 6.38,4.12 22.41,11.23 31.78,11.8l-0.12 -69.51 0 0z"/>
 </g>
</svg>
