<?xml version="1.0" encoding="UTF-8"?>
<!DOCTYPE svg PUBLIC "-//W3C//DTD SVG 1.1//EN" "http://www.w3.org/Graphics/SVG/1.1/DTD/svg11.dtd">
<!-- Creator: CorelDRAW 2021 (64-Bit) -->
<svg xmlns="http://www.w3.org/2000/svg" xml:space="preserve" width="50px" height="50px" version="1.1" style="shape-rendering:geometricPrecision; text-rendering:geometricPrecision; image-rendering:optimizeQuality; fill-rule:evenodd; clip-rule:evenodd"
viewBox="0 0 44.57 44.37"
 xmlns:xlink="http://www.w3.org/1999/xlink"
 xmlns:xodm="http://www.corel.com/coreldraw/odm/2003">
 <defs>
  <style type="text/css">
   <![CDATA[
    .fil0 {fill:white;fill-rule:nonzero}
   ]]>
  </style>
 </defs>
 <g id="Layer_x0020_1">
  <metadata id="CorelCorpID_0Corel-Layer"/>
  <path class="fil0" d="M18.55 27.01c-1.05,-0.12 -4.76,0.14 -5.37,-0.09 -0.01,-0.1 -0.1,-5.66 0,-6.1l0.06 -0.1 5.3 -0.01c0.19,-1.37 -0.14,-4.22 0.16,-6.28 0.5,-3.57 2.86,-5.97 6.41,-6.44 0.87,-0.11 5.68,-0.11 6.21,0.17 0.1,0.12 0.08,-0.19 0.09,0.22l-0.02 5.3c-0.39,0.14 -2.98,0.09 -3.54,0.07 -1.63,-0.13 -2.58,0.71 -2.79,2.08 -0.11,0.76 -0.15,4.09 -0.04,4.87l6.15 0.01 -0.8 6.17c-0.51,0.21 -4.41,-0.01 -5.36,0.07l-0.01 17.42c2.38,-0.05 6.37,-1.6 8.09,-2.6 1.99,-1.15 2.37,-1.5 3.9,-2.76 1.51,-1.24 3.27,-3.44 4.31,-5.11 3.9,-6.2 4.38,-14.69 1.08,-21.27 -0.63,-1.28 -1.24,-2.26 -1.99,-3.35l-1.81 -2.21c-3.92,-4.25 -9.78,-6.96 -15.71,-7.07 -12.17,-0.21 -21.67,8.87 -22.76,20.03 -0.32,3.25 0.08,6.58 1.05,9.39 0.94,2.7 2.15,4.76 3.85,6.91 0.39,0.49 0.82,1.02 1.22,1.41 0.27,0.25 0.45,0.41 0.67,0.64 0.29,0.3 0.44,0.38 0.73,0.67 0.63,0.65 2.25,1.71 3.08,2.25 1.58,1.02 5.55,2.78 7.87,2.92l-0.03 -17.21z"/>
 </g>
</svg>
