<?xml version="1.0" encoding="UTF-8"?>
<!DOCTYPE svg PUBLIC "-//W3C//DTD SVG 1.1//EN" "http://www.w3.org/Graphics/SVG/1.1/DTD/svg11.dtd">
<!-- Creator: CorelDRAW 2021 (64-Bit) -->
<svg xmlns="http://www.w3.org/2000/svg" xml:space="preserve" width="180px" height="180px" version="1.1" style="shape-rendering:geometricPrecision; text-rendering:geometricPrecision; image-rendering:optimizeQuality; fill-rule:evenodd; clip-rule:evenodd"
viewBox="0 0 180 180"
 xmlns:xlink="http://www.w3.org/1999/xlink"
 xmlns:xodm="http://www.corel.com/coreldraw/odm/2003">
 <defs>
  <style type="text/css">
   <![CDATA[
    .fil0 {fill:none}
    .fil1 {fill:black}
   ]]>
  </style>
 </defs>
 <g id="Layer_x0020_1">
  <metadata id="CorelCorpID_0Corel-Layer"/>
  <rect class="fil0" width="180" height="180"/>
  <path class="fil1" d="M90 0c49.69,0 90,40.31 90,90 0,49.69 -40.31,90 -90,90 -49.69,0 -90,-40.31 -90,-90 0,-49.69 40.31,-90 90,-90zm16.64 101.92c0,0.28 0.03,0.62 0.04,0.9 0.1,10.13 0.26,20.33 0.01,30.45 -0.06,2.21 -0.62,3.98 -2.45,5.32l-0.16 0.11 -17.19 8.55c-3.88,1.93 -10.26,6.18 -13.01,0.11 -0.71,-1.56 -0.56,-3.35 -0.56,-5.02l0 -39.29c0,-0.32 0.03,-0.85 0,-1.21 -0.15,-0.2 -0.36,-0.42 -0.5,-0.59l-19.78 -23.99c-5.79,-7.31 -12,-14.26 -17.76,-21.56 -1.27,-1.6 -1.88,-2.17 -1.88,-4.45 0,-2.81 2.38,-5.43 5.21,-5.43l102.77 0c1.27,0 2.83,0.8 3.73,1.69 0.69,0.69 1.2,1.52 1.43,2.48l0.06 0.25 0 1.73 -0.05 0.23c-0.33,1.54 -1.25,2.86 -2.24,4.03l-6.89 8.36c-6.79,8.37 -13.97,16.47 -20.62,25.01l-10.16 12.32zm-55.84 -45.03l31.3 38c2.21,2.61 2.5,3.55 2.5,7.1l0 33.96 10.8 -5.4c0,-9.02 0,-18.05 0,-27.07 0,-2.96 -0.4,-5.05 1.64,-7.52l32.05 -38.87c0.05,-0.07 0.11,-0.14 0.16,-0.2l-78.45 0z"/>
 </g>
</svg>
