<?xml version="1.0" encoding="UTF-8" standalone="no"?>
<!-- Creator: CorelDRAW 2021 (64-Bit) -->

<svg
   xml:space="preserve"
   width="48px"
   height="38px"
   version="1.1"
   style="shape-rendering:geometricPrecision; text-rendering:geometricPrecision; image-rendering:optimizeQuality; fill-rule:evenodd; clip-rule:evenodd"
   viewBox="0 0 19.12 15.03"
   id="svg10"
   sodipodi:docname="footer_mail.svg"
   inkscape:version="1.2.2 (b0a8486541, 2022-12-01)"
   xmlns:inkscape="http://www.inkscape.org/namespaces/inkscape"
   xmlns:sodipodi="http://sodipodi.sourceforge.net/DTD/sodipodi-0.dtd"
   xmlns="http://www.w3.org/2000/svg"
   xmlns:svg="http://www.w3.org/2000/svg"><sodipodi:namedview
   id="namedview12"
   pagecolor="#505050"
   bordercolor="#eeeeee"
   borderopacity="1"
   inkscape:showpageshadow="0"
   inkscape:pageopacity="0"
   inkscape:pagecheckerboard="0"
   inkscape:deskcolor="#505050"
   showgrid="false"
   inkscape:zoom="20.947368"
   inkscape:cx="22.65201"
   inkscape:cy="19"
   inkscape:window-width="1920"
   inkscape:window-height="996"
   inkscape:window-x="0"
   inkscape:window-y="0"
   inkscape:window-maximized="1"
   inkscape:current-layer="Layer_x0020_1" />
 <defs
   id="defs4">
  <style
   type="text/css"
   id="style2">
   <![CDATA[
    .fil0 {fill:white;fill-rule:nonzero}
   ]]>
  </style>
 </defs>
 <g
   id="Layer_x0020_1"
   inkscape:label="Layer 1">
  <metadata
   id="CorelCorpID_0Corel-Layer" />
  <path
   class="fil0"
   d="M18.44 0l-17.76 0c-0.37,0 -0.68,0.31 -0.68,0.68l0 13.66c0,0.38 0.31,0.69 0.68,0.69l17.76 0c0.38,0 0.68,-0.31 0.68,-0.69l0 -13.66c0,-0.37 -0.3,-0.68 -0.68,-0.68zm-2.02 1.54l-6.86 5.33 -6.86 -5.33 13.72 0zm-15.47 0.37l0.58 0.45 7.3 5.67c0.43,0.34 1.03,0.34 1.46,0l7.3 -5.67 0 11.13 -16.05 0 0 -11.13 -0.59 -0.45 0 0zm16.64 0.45l0.59 -0.45 -0.84 -1.08 0 0 0.84 1.08 -0.59 0.45z"
   id="path7"
   style="fill:#000000" />
 </g>
</svg>
