<?xml version="1.0" encoding="UTF-8"?>
<!DOCTYPE svg PUBLIC "-//W3C//DTD SVG 1.1//EN" "http://www.w3.org/Graphics/SVG/1.1/DTD/svg11.dtd">
<!-- Creator: CorelDRAW 2021 (64-Bit) -->
<svg xmlns="http://www.w3.org/2000/svg" xml:space="preserve" width="48px" height="38px" version="1.1" style="shape-rendering:geometricPrecision; text-rendering:geometricPrecision; image-rendering:optimizeQuality; fill-rule:evenodd; clip-rule:evenodd"
viewBox="0 0 19.12 15.03"
 xmlns:xlink="http://www.w3.org/1999/xlink"
 xmlns:xodm="http://www.corel.com/coreldraw/odm/2003">
 <defs>
  <style type="text/css">
   <![CDATA[
    .fil0 {fill:white;fill-rule:nonzero}
   ]]>
  </style>
 </defs>
 <g id="Layer_x0020_1">
  <metadata id="CorelCorpID_0Corel-Layer"/>
  <path class="fil0" d="M18.44 0l-17.76 0c-0.37,0 -0.68,0.31 -0.68,0.68l0 13.66c0,0.38 0.31,0.69 0.68,0.69l17.76 0c0.38,0 0.68,-0.31 0.68,-0.69l0 -13.66c0,-0.37 -0.3,-0.68 -0.68,-0.68zm-2.02 1.54l-6.86 5.33 -6.86 -5.33 13.72 0zm-15.47 0.37l0.58 0.45 7.3 5.67c0.43,0.34 1.03,0.34 1.46,0l7.3 -5.67 0 11.13 -16.05 0 0 -11.13 -0.59 -0.45 0 0zm16.64 0.45l0.59 -0.45 -0.84 -1.08 0 0 0.84 1.08 -0.59 0.45z"/>
 </g>
</svg>
