<?xml version="1.0" encoding="UTF-8"?>
<!DOCTYPE svg PUBLIC "-//W3C//DTD SVG 1.1//EN" "http://www.w3.org/Graphics/SVG/1.1/DTD/svg11.dtd">
<!-- Creator: CorelDRAW 2021 (64-Bit) -->
<svg xmlns="http://www.w3.org/2000/svg" xml:space="preserve" width="49px" height="49px" version="1.1" style="shape-rendering:geometricPrecision; text-rendering:geometricPrecision; image-rendering:optimizeQuality; fill-rule:evenodd; clip-rule:evenodd"
viewBox="0 0 19.93 19.94"
 xmlns:xlink="http://www.w3.org/1999/xlink"
 xmlns:xodm="http://www.corel.com/coreldraw/odm/2003">
 <defs>
  <style type="text/css">
   <![CDATA[
    .fil0 {fill:white}
   ]]>
  </style>
 </defs>
 <g id="Layer_x0020_1">
  <metadata id="CorelCorpID_0Corel-Layer"/>
  <path class="fil0" d="M6.96 8.29c0.05,0.09 0.11,0.18 0.16,0.26 0.13,0.22 0.27,0.44 0.41,0.66 0.16,0.26 0.33,0.51 0.51,0.76 0.15,0.22 0.3,0.44 0.48,0.63 0.5,0.58 1.21,1.1 1.85,1.52 0.33,0.22 0.68,0.44 1.03,0.63l1.09 -1.09c0.31,-0.32 0.77,-0.44 1.2,-0.34l4.53 1.06 0 0c0.34,0.1 0.65,0.29 0.91,0.52 0.56,0.51 0.81,1.21 0.8,1.96l0 0.01 0 0c-0.04,0.37 -0.12,0.76 -0.2,1.11 -0.17,0.65 -0.43,1.38 -0.85,1.9 -0.35,0.44 -1.03,0.89 -1.51,1.19 -0.25,0.16 -0.5,0.31 -0.75,0.45 -0.08,0.05 -0.29,0.18 -0.37,0.2 -1.79,0.53 -3.79,0.02 -5.44,-0.72 -2.04,-0.92 -3.96,-2.36 -5.55,-3.93 -1.63,-1.6 -3.11,-3.53 -4.1,-5.59 -0.84,-1.75 -1.42,-3.83 -1.04,-5.77 0.01,-0.07 0.08,-0.2 0.11,-0.27 0.08,-0.16 0.16,-0.33 0.25,-0.49 0.2,-0.39 0.45,-0.82 0.73,-1.15 1.04,-1.25 2.41,-1.96 4.06,-1.77 0.39,-0.01 0.88,0.12 1.2,0.35 0.44,0.33 0.71,0.79 0.87,1.3l1.29 4.04c0.15,0.46 0.03,0.96 -0.31,1.29l0 0.01 -0.01 0c-0.23,0.19 -1.19,1.02 -1.35,1.27zm8.88 10.07c1.05,-0.44 2.01,-1.15 2.45,-2.22 0.14,-0.35 0.27,-0.89 0.22,-1.28l0 -0.01 0 -0.01c0,-0.33 -0.08,-0.65 -0.33,-0.88 -0.08,-0.08 -0.22,-0.17 -0.33,-0.2l-4.41 -1.04 -1.72 1.73 -0.09 -0.03c-2.01,-0.71 -3.65,-2.05 -4.89,-3.76 -0.4,-0.56 -0.77,-1.16 -1.07,-1.78 -0.12,-0.24 -0.24,-0.51 -0.34,-0.77l-0.03 -0.09 1.95 -1.95 -1.26 -3.95c-0.08,-0.26 -0.24,-0.58 -0.51,-0.67 -0.09,-0.03 -0.21,-0.04 -0.3,-0.01l-0.03 0.01 -0.04 -0.01c-1.1,-0.12 -2.01,0.35 -2.72,1.16 -0.33,0.38 -0.69,0.92 -0.88,1.39 -0.33,1.71 0.24,3.54 0.99,5.06 0.93,1.85 2.3,3.59 3.78,5.03 1.44,1.4 3.16,2.71 4.99,3.56 1.35,0.63 3.09,1.15 4.57,0.72z"/>
 </g>
</svg>
