<?xml version="1.0" encoding="UTF-8" standalone="no"?>
<!-- Creator: CorelDRAW 2021 (64-Bit) -->

<svg
   xml:space="preserve"
   width="48px"
   height="48px"
   version="1.1"
   style="shape-rendering:geometricPrecision; text-rendering:geometricPrecision; image-rendering:optimizeQuality; fill-rule:evenodd; clip-rule:evenodd"
   viewBox="0 0 19.12 19.12"
   id="svg6753"
   sodipodi:docname="footer_clock.svg"
   inkscape:version="1.2.2 (b0a8486541, 2022-12-01)"
   xmlns:inkscape="http://www.inkscape.org/namespaces/inkscape"
   xmlns:sodipodi="http://sodipodi.sourceforge.net/DTD/sodipodi-0.dtd"
   xmlns="http://www.w3.org/2000/svg"
   xmlns:svg="http://www.w3.org/2000/svg"><sodipodi:namedview
   id="namedview6755"
   pagecolor="#505050"
   bordercolor="#eeeeee"
   borderopacity="1"
   inkscape:showpageshadow="0"
   inkscape:pageopacity="0"
   inkscape:pagecheckerboard="0"
   inkscape:deskcolor="#505050"
   showgrid="false"
   inkscape:zoom="16.583333"
   inkscape:cx="22.281407"
   inkscape:cy="24"
   inkscape:window-width="1920"
   inkscape:window-height="996"
   inkscape:window-x="0"
   inkscape:window-y="0"
   inkscape:window-maximized="1"
   inkscape:current-layer="Layer_x0020_1" />
 <defs
   id="defs6747">
  <style
   type="text/css"
   id="style6745">
   <![CDATA[
    .fil0 {fill:white;fill-rule:nonzero}
   ]]>
  </style>
 </defs>
 <g
   id="Layer_x0020_1"
   inkscape:label="Layer 1">
  <metadata
   id="CorelCorpID_0Corel-Layer" />
  <path
   class="fil0"
   d="M9.56 19.12c-5.26,0 -9.56,-4.3 -9.56,-9.56 0,-5.26 4.3,-9.56 9.56,-9.56 5.26,0 9.56,4.3 9.56,9.56 0,5.26 -4.3,9.56 -9.56,9.56zm3.19 -5.57c-0.24,0 -0.4,-0.08 -0.56,-0.24l-3.05 -3.05c-0.23,-0.13 -0.37,-0.38 -0.37,-0.7l0 -5.58c0,-0.47 0.31,-0.79 0.79,-0.79 0.48,0 0.8,0.32 0.8,0.79l0 5.26 2.95 2.95c0.32,0.32 0.32,0.8 0,1.12 -0.16,0.16 -0.32,0.24 -0.56,0.24zm-3.19 -11.96c-4.38,0 -7.97,3.59 -7.97,7.97 0,4.39 3.59,7.97 7.97,7.97 4.38,0 7.97,-3.58 7.97,-7.97 0,-4.38 -3.59,-7.97 -7.97,-7.97z"
   id="path6750"
   style="fill:#000000" />
 </g>
</svg>
