<?xml version="1.0" encoding="UTF-8"?>
<!DOCTYPE svg PUBLIC "-//W3C//DTD SVG 1.1//EN" "http://www.w3.org/Graphics/SVG/1.1/DTD/svg11.dtd">
<!-- Creator: CorelDRAW 2021 (64-Bit) -->
<svg xmlns="http://www.w3.org/2000/svg" xml:space="preserve" width="48px" height="48px" version="1.1" style="shape-rendering:geometricPrecision; text-rendering:geometricPrecision; image-rendering:optimizeQuality; fill-rule:evenodd; clip-rule:evenodd"
viewBox="0 0 19.12 19.12"
 xmlns:xlink="http://www.w3.org/1999/xlink"
 xmlns:xodm="http://www.corel.com/coreldraw/odm/2003">
 <defs>
  <style type="text/css">
   <![CDATA[
    .fil0 {fill:white;fill-rule:nonzero}
   ]]>
  </style>
 </defs>
 <g id="Layer_x0020_1">
  <metadata id="CorelCorpID_0Corel-Layer"/>
  <path class="fil0" d="M9.56 19.12c-5.26,0 -9.56,-4.3 -9.56,-9.56 0,-5.26 4.3,-9.56 9.56,-9.56 5.26,0 9.56,4.3 9.56,9.56 0,5.26 -4.3,9.56 -9.56,9.56zm3.19 -5.57c-0.24,0 -0.4,-0.08 -0.56,-0.24l-3.05 -3.05c-0.23,-0.13 -0.37,-0.38 -0.37,-0.7l0 -5.58c0,-0.47 0.31,-0.79 0.79,-0.79 0.48,0 0.8,0.32 0.8,0.79l0 5.26 2.95 2.95c0.32,0.32 0.32,0.8 0,1.12 -0.16,0.16 -0.32,0.24 -0.56,0.24zm-3.19 -11.96c-4.38,0 -7.97,3.59 -7.97,7.97 0,4.39 3.59,7.97 7.97,7.97 4.38,0 7.97,-3.58 7.97,-7.97 0,-4.38 -3.59,-7.97 -7.97,-7.97z"/>
 </g>
</svg>
