<?xml version="1.0" encoding="UTF-8"?>
<!DOCTYPE svg PUBLIC "-//W3C//DTD SVG 1.1//EN" "http://www.w3.org/Graphics/SVG/1.1/DTD/svg11.dtd">
<!-- Creator: CorelDRAW 2021 (64-Bit) -->
<svg xmlns="http://www.w3.org/2000/svg" xml:space="preserve" width="50px" height="50px" version="1.1" style="shape-rendering:geometricPrecision; text-rendering:geometricPrecision; image-rendering:optimizeQuality; fill-rule:evenodd; clip-rule:evenodd"
viewBox="0 0 37.38 37.38"
 xmlns:xlink="http://www.w3.org/1999/xlink"
 xmlns:xodm="http://www.corel.com/coreldraw/odm/2003">
 <defs>
  <style type="text/css">
   <![CDATA[
    .fil0 {fill:white;fill-rule:nonzero}
   ]]>
  </style>
 </defs>
 <g id="Layer_x0020_1">
  <metadata id="CorelCorpID_0Corel-Layer"/>
  <path class="fil0" d="M0 17.66l0 2.21c0.1,0.21 0.2,1.53 0.26,1.89 0.12,0.66 0.24,1.22 0.4,1.83 1.62,6.23 6.75,11.4 13.04,13.11 0.6,0.16 1.18,0.29 1.81,0.4 0.38,0.06 1.71,0.16 1.94,0.28l2.16 0c0.18,-0.07 1.61,-0.18 1.95,-0.23 6.13,-0.92 11.25,-4.83 13.98,-10.39 1.76,-3.56 1.69,-6.7 1.84,-7.04l0 -2.27c-0.24,-0.47 -0.05,-3.17 -1.88,-6.91 -1.01,-2.07 -2.13,-3.55 -3.66,-5.12 -0.8,-0.82 -1.42,-1.3 -2.4,-2.02 -2.24,-1.65 -5.03,-2.68 -7.81,-3.16 -0.39,-0.07 -1.71,-0.15 -1.91,-0.24l-2.06 0c-0.13,0.06 -1.65,0.19 -1.96,0.25 -0.64,0.11 -1.2,0.22 -1.82,0.38 -1.09,0.28 -2.28,0.72 -3.23,1.19 -5.67,2.8 -9.29,7.63 -10.4,13.89 -0.07,0.34 -0.18,1.78 -0.25,1.95zm13.38 -12.18l10.62 0c4.34,0 7.89,3.56 7.89,7.9l0 10.62c0,4.34 -3.55,7.89 -7.89,7.89l-10.62 0c-4.35,0 -7.9,-3.55 -7.9,-7.89l0 -10.62c0,-4.34 3.55,-7.9 7.9,-7.9zm12.81 4.38c-0.91,0 -1.64,0.74 -1.64,1.64 0,0.91 0.73,1.65 1.64,1.65 0.91,0 1.64,-0.74 1.64,-1.65 0,-0.9 -0.73,-1.64 -1.64,-1.64zm-7.5 2.11c-3.71,0 -6.72,3.01 -6.72,6.72 0,3.71 3.01,6.71 6.72,6.71 3.71,0 6.71,-3 6.71,-6.71 0,-3.71 -3,-6.72 -6.71,-6.72zm0 1.87c-2.68,0 -4.85,2.17 -4.85,4.85 0,2.68 2.17,4.85 4.85,4.85 2.68,0 4.85,-2.17 4.85,-4.85 0,-2.68 -2.17,-4.85 -4.85,-4.85zm-5.45 -6.65l10.9 0c3.33,0 6.05,2.72 6.05,6.05l0 10.9c0,3.33 -2.72,6.05 -6.05,6.05l-10.9 0c-3.33,0 -6.05,-2.72 -6.05,-6.05l0 -10.9c0,-3.33 2.72,-6.05 6.05,-6.05z"/>
 </g>
</svg>
