<?xml version="1.0" encoding="UTF-8"?>
<!DOCTYPE svg PUBLIC "-//W3C//DTD SVG 1.1//EN" "http://www.w3.org/Graphics/SVG/1.1/DTD/svg11.dtd">
<!-- Creator: CorelDRAW 2021 (64-Bit) -->
<svg xmlns="http://www.w3.org/2000/svg" xml:space="preserve" width="180px" height="180px" version="1.1" style="shape-rendering:geometricPrecision; text-rendering:geometricPrecision; image-rendering:optimizeQuality; fill-rule:evenodd; clip-rule:evenodd"
viewBox="0 0 180 180"
 xmlns:xlink="http://www.w3.org/1999/xlink"
 xmlns:xodm="http://www.corel.com/coreldraw/odm/2003">
 <defs>
  <style type="text/css">
   <![CDATA[
    .fil0 {fill:none}
    .fil1 {fill:black;fill-rule:nonzero}
   ]]>
  </style>
 </defs>
 <g id="Layer_x0020_1">
  <metadata id="CorelCorpID_0Corel-Layer"/>
  <rect class="fil0" width="180" height="180"/>
  <path class="fil1" d="M0 85.04l0 10.64c0.48,1.01 0.96,7.37 1.25,9.1 0.58,3.18 1.16,5.88 1.93,8.81 7.8,30 32.5,54.9 62.79,63.13 2.89,0.77 5.68,1.4 8.72,1.93 1.83,0.29 8.23,0.77 9.34,1.35l10.4 0c0.87,-0.34 7.75,-0.87 9.39,-1.11 29.52,-4.43 54.17,-23.26 67.32,-50.03 8.47,-17.14 8.14,-32.26 8.86,-33.9l0 -10.93c-1.16,-2.26 -0.24,-15.27 -9.05,-33.28 -4.87,-9.96 -10.26,-17.09 -17.63,-24.65 -3.85,-3.95 -6.84,-6.26 -11.56,-9.73 -10.78,-7.94 -24.22,-12.9 -37.6,-15.21 -1.88,-0.34 -8.24,-0.73 -9.2,-1.16l-9.92 0c-0.63,0.29 -7.95,0.91 -9.44,1.2 -3.08,0.53 -5.78,1.06 -8.76,1.83 -5.25,1.35 -10.98,3.47 -15.56,5.73 -27.3,13.49 -44.73,36.75 -50.08,66.89 -0.33,1.64 -0.86,8.57 -1.2,9.39l0 0zm64.43 -58.65l51.14 0c20.9,0 37.99,17.14 37.99,38.04l0 51.13c0,20.9 -17.09,38 -37.99,38l-51.14 0c-20.95,0 -38.04,-17.1 -38.04,-38l0 -51.13c0,-20.9 17.09,-38.04 38.04,-38.04zm61.68 21.09c-4.38,0 -7.89,3.56 -7.89,7.89 0,4.39 3.51,7.95 7.89,7.95 4.39,0 7.9,-3.56 7.9,-7.95 0,-4.33 -3.51,-7.89 -7.9,-7.89zm-36.11 10.16c-17.87,0 -32.36,14.49 -32.36,32.36 0,17.86 14.49,32.31 32.36,32.31 17.87,0 32.31,-14.45 32.31,-32.31 0,-17.87 -14.44,-32.36 -32.31,-32.36zm0 9c-12.91,0 -23.36,10.45 -23.36,23.36 0,12.9 10.45,23.35 23.36,23.35 12.91,0 23.36,-10.45 23.36,-23.35 0,-12.91 -10.45,-23.36 -23.36,-23.36zm-26.24 -32.02l52.48 0c16.04,0 29.14,13.1 29.14,29.13l0 52.49c0,16.04 -13.1,29.13 -29.14,29.13l-52.48 0c-16.04,0 -29.14,-13.09 -29.14,-29.13l0 -52.49c0,-16.03 13.1,-29.13 29.14,-29.13z"/>
 </g>
</svg>
