<?xml version="1.0" encoding="UTF-8"?>
<!DOCTYPE svg PUBLIC "-//W3C//DTD SVG 1.1//EN" "http://www.w3.org/Graphics/SVG/1.1/DTD/svg11.dtd">
<!-- Creator: CorelDRAW 2021 (64-Bit) -->
<svg xmlns="http://www.w3.org/2000/svg" xml:space="preserve" width="180px" height="180px" version="1.1" style="shape-rendering:geometricPrecision; text-rendering:geometricPrecision; image-rendering:optimizeQuality; fill-rule:evenodd; clip-rule:evenodd"
viewBox="0 0 180 180"
 xmlns:xlink="http://www.w3.org/1999/xlink"
 xmlns:xodm="http://www.corel.com/coreldraw/odm/2003">
 <defs>
  <style type="text/css">
   <![CDATA[
    .fil0 {fill:none}
    .fil1 {fill:black;fill-rule:nonzero}
   ]]>
  </style>
 </defs>
 <g id="Layer_x0020_1">
  <metadata id="CorelCorpID_0Corel-Layer"/>
  <rect class="fil0" width="180" height="180"/>
  <path class="fil1" d="M86.18 48.14c13.17,-2.26 23.87,7.23 25.73,18.3 2.26,13.48 -7.39,24.06 -18.3,25.92 -13.53,2.27 -24.07,-7.39 -25.88,-18.33 -2.22,-13.65 7.31,-23.99 18.45,-25.89zm-35.46 21.89c0,18.09 18.14,44.26 27.1,59.69 1.78,3.03 3.52,5.9 5.25,8.92 1.74,2.95 3.56,6.43 5.45,9.17l22.34 -35.66c6.5,-10.13 18.41,-27.54 18.41,-42.12 0,-20.52 -17.72,-37.84 -40.1,-37.84 -20.23,0 -38.45,17.36 -38.45,37.84l0 0zm39.26 -70.03c49.71,0 90.02,40.3 90.02,89.98 0,49.71 -40.31,90.02 -90.02,90.02 -49.68,0 -89.98,-40.3 -89.98,-90.02 0,-49.68 40.3,-89.98 89.98,-89.98z"/>
 </g>
</svg>
