<?xml version="1.0" encoding="UTF-8"?>
<!DOCTYPE svg PUBLIC "-//W3C//DTD SVG 1.1//EN" "http://www.w3.org/Graphics/SVG/1.1/DTD/svg11.dtd">
<!-- Creator: CorelDRAW 2021 (64-Bit) -->
<svg xmlns="http://www.w3.org/2000/svg" xml:space="preserve" width="50px" height="50px" version="1.1" style="shape-rendering:geometricPrecision; text-rendering:geometricPrecision; image-rendering:optimizeQuality; fill-rule:evenodd; clip-rule:evenodd"
viewBox="0 0 44.57 44.57"
 xmlns:xlink="http://www.w3.org/1999/xlink"
 xmlns:xodm="http://www.corel.com/coreldraw/odm/2003">
 <defs>
  <style type="text/css">
   <![CDATA[
    .fil0 {fill:white;fill-rule:nonzero}
   ]]>
  </style>
 </defs>
 <g id="Layer_x0020_1">
  <metadata id="CorelCorpID_0Corel-Layer"/>
  <path class="fil0" d="M21.34 11.92c3.26,-0.56 5.91,1.79 6.37,4.53 0.56,3.34 -1.83,5.96 -4.53,6.42 -3.35,0.56 -5.96,-1.83 -6.41,-4.54 -0.55,-3.38 1.81,-5.94 4.57,-6.41zm-8.78 5.42c0,4.48 4.49,10.96 6.71,14.78 0.44,0.75 0.87,1.46 1.3,2.21 0.43,0.73 0.88,1.59 1.35,2.27l5.53 -8.83c1.61,-2.51 4.56,-6.82 4.56,-10.43 0,-5.08 -4.39,-9.37 -9.93,-9.37 -5.01,0 -9.52,4.3 -9.52,9.37zm9.72 -17.34c12.31,0 22.29,9.98 22.29,22.28 0,12.31 -9.98,22.29 -22.29,22.29 -12.3,0 -22.28,-9.98 -22.28,-22.29 0,-12.3 9.98,-22.28 22.28,-22.28z"/>
 </g>
</svg>
