<?xml version="1.0" encoding="UTF-8"?>
<!DOCTYPE svg PUBLIC "-//W3C//DTD SVG 1.1//EN" "http://www.w3.org/Graphics/SVG/1.1/DTD/svg11.dtd">
<!-- Creator: CorelDRAW 2021 (64-Bit) -->
<svg xmlns="http://www.w3.org/2000/svg" xml:space="preserve" width="180px" height="180px" version="1.1" style="shape-rendering:geometricPrecision; text-rendering:geometricPrecision; image-rendering:optimizeQuality; fill-rule:evenodd; clip-rule:evenodd"
viewBox="0 0 180 180"
 xmlns:xlink="http://www.w3.org/1999/xlink"
 xmlns:xodm="http://www.corel.com/coreldraw/odm/2003">
 <defs>
  <style type="text/css">
   <![CDATA[
    .fil0 {fill:none}
    .fil1 {fill:black;fill-rule:nonzero}
   ]]>
  </style>
 </defs>
 <g id="Layer_x0020_1">
  <metadata id="CorelCorpID_0Corel-Layer"/>
  <rect class="fil0" width="180" height="180"/>
  <path class="fil1" d="M89.98 0c49.71,0 90.02,40.3 90.02,89.98 0,49.71 -40.31,90.02 -90.02,90.02 -49.68,0 -89.98,-40.3 -89.98,-90.02 0,-49.68 40.3,-89.98 89.98,-89.98zm-50.72 118.83l0 0 0 -54.94 3.96 3.42c1.34,1.21 3.7,3.12 4.9,4.28 1.74,1.65 4.81,4.14 6.77,5.92 1.65,1.51 4.32,3.65 5.83,5.08 0.58,0.58 1.34,1.15 1.96,1.69 1.47,1.24 3.47,3.12 4.9,4.32 0.31,0.22 0.62,0.53 0.94,0.8l1.87 1.69 -11.67 10.46c-1.78,1.65 -4.1,3.57 -5.83,5.21l-0.98 0.9c-0.31,0.26 -0.63,0.57 -0.98,0.84 -2.32,1.96 -4.54,4.14 -6.81,6.1 -0.72,0.58 -4.41,4.01 -4.86,4.23zm38.78 -21.1c1.34,1.06 4.1,3.6 5.57,4.85 0.89,0.85 1.91,1.6 2.8,2.49 0.8,0.71 2.1,1.52 3.79,1.43 1.65,-0.05 2.81,-0.94 3.61,-1.69l8.32 -7.26c0.45,0.27 2.27,1.96 2.85,2.49 1.43,1.2 5.26,4.54 6.5,5.74l10.11 9c2.45,2.14 4.86,4.45 7.3,6.59l2.76 2.45 -82.99 0 6.41 -5.79 19.28 -17.14c0.49,-0.45 3.38,-3.07 3.69,-3.16zm11.94 -2.76l0 0c-0.31,-0.18 -0.98,-0.81 -1.34,-1.16l-2.67 -2.32c-1.96,-1.82 -4.63,-3.96 -6.63,-5.78 -1.78,-1.61 -3.52,-2.99 -5.3,-4.64 -1.78,-1.64 -4.63,-4 -6.64,-5.78 -1.87,-1.7 -19.63,-17.01 -19.77,-17.37l84.74 0c-0.14,0.22 -2.28,2.05 -2.63,2.36 -0.93,0.76 -1.74,1.51 -2.67,2.32l-5.3 4.63c-0.45,0.35 -0.85,0.8 -1.29,1.15 -2.01,1.65 -4.86,4.37 -6.64,5.84 -0.49,0.35 -0.89,0.71 -1.33,1.15l-11.89 10.38c-1.65,1.38 -3.7,3.29 -5.3,4.63l-5.34 4.59zm19.72 -4.01l0 0 3.92 -3.43c1.29,-1.2 2.54,-2.18 3.83,-3.38l3.87 -3.39c1.34,-1.07 2.54,-2.27 3.88,-3.34l15.54 -13.53 0 54.67c-0.45,-0.26 -0.63,-0.49 -1.03,-0.84 -2.27,-2.05 -29.47,-26.18 -30.01,-26.76zm-76.27 -44.8c-1.78,0.36 -3.03,1.52 -3.65,2.9 -0.63,1.47 -0.4,4.36 -0.4,6.14l0 71.78c0,2.53 -0.09,3.74 1.33,5.3 1.25,1.38 2.5,1.6 4.95,1.6l104.41 0c4.05,0 8.46,0.93 10.15,-2.98 0.62,-1.52 0.4,-4.37 0.4,-6.15l0 -71.77c0,-2.54 0.09,-3.74 -1.33,-5.3 -1.21,-1.34 -2.54,-1.61 -4.95,-1.61l-104.41 0c-1.65,0 -5.12,-0.17 -6.5,0.09l0 0z"/>
 </g>
</svg>
