<?xml version="1.0" encoding="UTF-8"?>
<!DOCTYPE svg PUBLIC "-//W3C//DTD SVG 1.1//EN" "http://www.w3.org/Graphics/SVG/1.1/DTD/svg11.dtd">
<!-- Creator: CorelDRAW 2021 (64-Bit) -->
<svg xmlns="http://www.w3.org/2000/svg" xml:space="preserve" width="50px" height="50px" version="1.1" style="shape-rendering:geometricPrecision; text-rendering:geometricPrecision; image-rendering:optimizeQuality; fill-rule:evenodd; clip-rule:evenodd"
viewBox="0 0 44.57 44.57"
 xmlns:xlink="http://www.w3.org/1999/xlink"
 xmlns:xodm="http://www.corel.com/coreldraw/odm/2003">
 <defs>
  <style type="text/css">
   <![CDATA[
    .fil0 {fill:white;fill-rule:nonzero}
   ]]>
  </style>
 </defs>
 <g id="Layer_x0020_1">
  <metadata id="CorelCorpID_0Corel-Layer"/>
  <path class="fil0" d="M22.28 0c12.31,0 22.29,9.98 22.29,22.28 0,12.31 -9.98,22.29 -22.29,22.29 -12.3,0 -22.28,-9.98 -22.28,-22.29 0,-12.3 9.98,-22.28 22.28,-22.28zm-12.7 12.44c-0.4,0.08 -0.68,0.34 -0.82,0.65 -0.14,0.33 -0.09,0.98 -0.09,1.38l0 16.12c0,0.57 -0.02,0.84 0.3,1.19 0.28,0.31 0.56,0.36 1.11,0.36l23.45 0c0.91,0 1.9,0.21 2.28,-0.67 0.14,-0.34 0.09,-0.98 0.09,-1.38l0 -16.12c0,-0.57 0.02,-0.84 -0.3,-1.19 -0.27,-0.3 -0.57,-0.36 -1.11,-0.36l-23.45 0c-0.37,0 -1.15,-0.04 -1.46,0.02zm17.13 10.06c0.12,0.13 6.23,5.55 6.74,6.01 0.09,0.08 0.13,0.13 0.23,0.19l0 -12.28 -3.49 3.04c-0.3,0.24 -0.57,0.51 -0.87,0.75l-0.87 0.76c-0.29,0.27 -0.57,0.49 -0.86,0.76l-0.88 0.77zm-4.43 0.9l1.2 -1.03c0.36,-0.3 0.82,-0.73 1.19,-1.04l2.67 -2.33c0.1,-0.1 0.19,-0.18 0.3,-0.26 0.4,-0.33 1.04,-0.94 1.49,-1.31 0.1,-0.08 0.19,-0.18 0.29,-0.26l1.19 -1.04c0.21,-0.18 0.39,-0.35 0.6,-0.52 0.08,-0.07 0.56,-0.48 0.59,-0.53l-19.03 0c0.03,0.08 4.02,3.52 4.44,3.9 0.45,0.4 1.09,0.93 1.49,1.3 0.4,0.37 0.79,0.68 1.19,1.04 0.45,0.41 1.05,0.89 1.49,1.3l0.6 0.52c0.08,0.08 0.23,0.22 0.3,0.26zm-2.68 0.62c-0.07,0.02 -0.72,0.61 -0.83,0.71l-4.33 3.85c-0.37,0.31 -1.09,0.99 -1.44,1.3 4.34,0.51 13.9,0.17 18.64,0l-0.62 -0.55c-0.55,-0.48 -1.09,-1 -1.64,-1.48l-2.27 -2.02c-0.28,-0.27 -1.14,-1.02 -1.46,-1.29 -0.13,-0.12 -0.54,-0.5 -0.64,-0.56l-1.87 1.63c-0.18,0.17 -0.44,0.37 -0.81,0.38 -0.38,0.02 -0.67,-0.16 -0.85,-0.32 -0.2,-0.2 -0.43,-0.37 -0.63,-0.56 -0.33,-0.28 -0.95,-0.85 -1.25,-1.09zm-8.71 4.74c0.1,-0.05 0.93,-0.82 1.09,-0.95 0.51,-0.44 1.01,-0.93 1.53,-1.37 0.08,-0.06 0.15,-0.13 0.22,-0.19l0.22 -0.2c0.39,-0.37 0.91,-0.8 1.31,-1.17l2.62 -2.35 -0.42 -0.38c-0.07,-0.06 -0.14,-0.13 -0.21,-0.18 -0.32,-0.27 -0.77,-0.69 -1.1,-0.97 -0.14,-0.12 -0.31,-0.25 -0.44,-0.38 -0.34,-0.32 -0.94,-0.8 -1.31,-1.14 -0.44,-0.4 -1.13,-0.96 -1.52,-1.33 -0.27,-0.26 -0.8,-0.69 -1.1,-0.96l-0.89 -0.77 0 12.34z"/>
 </g>
</svg>
