<?xml version="1.0" encoding="UTF-8"?>
<!DOCTYPE svg PUBLIC "-//W3C//DTD SVG 1.1//EN" "http://www.w3.org/Graphics/SVG/1.1/DTD/svg11.dtd">
<!-- Creator: CorelDRAW 2021 (64-Bit) -->
<svg xmlns="http://www.w3.org/2000/svg" xml:space="preserve" width="50px" height="50px" version="1.1" style="shape-rendering:geometricPrecision; text-rendering:geometricPrecision; image-rendering:optimizeQuality; fill-rule:evenodd; clip-rule:evenodd"
viewBox="0 0 6.66 6.66"
 xmlns:xlink="http://www.w3.org/1999/xlink"
 xmlns:xodm="http://www.corel.com/coreldraw/odm/2003">
 <defs>
  <style type="text/css">
   <![CDATA[
    .fil0 {fill:white}
   ]]>
  </style>
 </defs>
 <g id="Layer_x0020_1">
  <metadata id="CorelCorpID_0Corel-Layer"/>
  <path class="fil0" d="M3.33 0.6c1.5,0 2.72,1.22 2.72,2.73 0,1.5 -1.22,2.72 -2.72,2.72 -1.51,0 -2.73,-1.22 -2.73,-2.72 0,-1.51 1.22,-2.73 2.73,-2.73zm2.09 2.19l0 0.94c-2.93,0 -1.34,0 -4.27,0l0 -0.94c2.93,0 1.34,0 4.27,0zm-2.09 -2.79c1.84,0 3.33,1.49 3.33,3.33 0,1.84 -1.49,3.33 -3.33,3.33 -1.84,0 -3.33,-1.49 -3.33,-3.33 0,-1.84 1.49,-3.33 3.33,-3.33z"/>
 </g>
</svg>
