<?xml version="1.0" encoding="UTF-8"?>
<!DOCTYPE svg PUBLIC "-//W3C//DTD SVG 1.1//EN" "http://www.w3.org/Graphics/SVG/1.1/DTD/svg11.dtd">
<!-- Creator: CorelDRAW 2021 (64-Bit) -->
<svg xmlns="http://www.w3.org/2000/svg" xml:space="preserve" width="180px" height="180px" version="1.1" style="shape-rendering:geometricPrecision; text-rendering:geometricPrecision; image-rendering:optimizeQuality; fill-rule:evenodd; clip-rule:evenodd"
viewBox="0 0 180 180"
 xmlns:xlink="http://www.w3.org/1999/xlink"
 xmlns:xodm="http://www.corel.com/coreldraw/odm/2003">
 <defs>
  <style type="text/css">
   <![CDATA[
    .fil0 {fill:none}
    .fil1 {fill:black}
   ]]>
  </style>
 </defs>
 <g id="Layer_x0020_1">
  <metadata id="CorelCorpID_0Corel-Layer"/>
  <rect class="fil0" width="180" height="180"/>
  <path class="fil1" d="M48.41 137.79l83.21 0 0.05 0c6.99,0 12.66,-5.66 12.66,-12.65l0.01 -0.29 -0.06 -55.27 -14.2 -10.1c-1.21,-0.89 -6.43,-4.2 -6.79,-5.36 -1.16,-3.62 -1.39,-5.73 -3.17,-9.01 -13.56,-25.05 -47.91,-23.77 -60.33,0.23 -2.52,4.87 -2.33,7.17 -3.15,9 -0.48,1.07 -12.81,9.36 -14.05,10.29l-6.94 4.86 0.02 55.49 0 0.16c0,6.99 5.67,12.65 12.66,12.65l0.08 0zm46.41 -72.24l0 9.84c0,2.67 -2.18,4.84 -4.85,4.84 -2.67,0 -4.84,-2.17 -4.84,-4.84l0 -9.84 -9.85 0c-2.66,0 -4.84,-2.18 -4.84,-4.85 0,-2.67 2.18,-4.84 4.84,-4.84l9.85 0 0 -9.85c0,-2.66 2.18,-4.84 4.84,-4.84 2.67,0 4.85,2.17 4.85,4.84l0 9.85 9.84 0c2.67,0 4.85,2.17 4.85,4.84 0,2.67 -2.18,4.85 -4.85,4.85l-9.84 0zm68.07 24.45c0.06,40.25 -32.64,72.95 -72.89,72.89 -40.25,0.06 -72.95,-32.64 -72.89,-72.89 -0.06,-40.25 32.64,-72.95 72.89,-72.89 40.25,-0.06 72.95,32.64 72.89,72.89zm17.07 0c0.06,49.69 -40.27,90.02 -89.96,89.96 -49.69,0.06 -90.02,-40.27 -89.96,-89.96 -0.06,-49.69 40.27,-90.03 89.96,-89.96 49.69,-0.07 90.02,40.27 89.96,89.96zm-130.51 40.96l80.73 0.04c0.51,0 1.01,-0.05 1.51,-0.13 3.25,-0.53 5.74,-3.3 5.83,-6.68l-0.03 -40.43c-4.74,2.67 -28.22,19.55 -29.34,20.93 5.46,3.02 11.39,8.42 16.57,12.22l8.12 6.31c2.63,2.13 0.75,4.1 -0.49,4.32 -1.63,0.29 -3.64,-1.75 -4.65,-2.57 -5.46,-4.34 -10.76,-8.2 -16.27,-12.59 -2.67,-2.13 -5.16,-3.87 -9.07,-5.37 -11.88,-4.52 -24.35,-2.08 -33.66,5.25 -5.55,4.37 -10.9,8.31 -16.42,12.73 -0.96,0.77 -2.93,2.73 -4.43,2.58 -1.46,-0.15 -3.17,-2.28 -0.89,-4.22l16.28 -12.6c2.84,-2.15 5.12,-4.27 8.63,-6.01l-29.38 -21c-0.01,13.43 -0.01,26.85 -0.01,40.28 0.24,4.18 2.7,6.37 6.97,6.94zm37.74 -97.13c-13.98,1.5 -25.9,13.97 -24.19,29.83 1.51,14.1 14.01,25.63 29.88,24.17 13.58,-1.26 25.85,-14.03 24.12,-29.98 -1.51,-13.86 -14.08,-25.71 -29.81,-24.02z"/>
 </g>
</svg>
