<?xml version="1.0" encoding="UTF-8"?>
<!DOCTYPE svg PUBLIC "-//W3C//DTD SVG 1.1//EN" "http://www.w3.org/Graphics/SVG/1.1/DTD/svg11.dtd">
<!-- Creator: CorelDRAW 2021 (64-Bit) -->
<svg xmlns="http://www.w3.org/2000/svg" xml:space="preserve" width="180px" height="180px" version="1.1" style="shape-rendering:geometricPrecision; text-rendering:geometricPrecision; image-rendering:optimizeQuality; fill-rule:evenodd; clip-rule:evenodd"
viewBox="0 0 180 180"
 xmlns:xlink="http://www.w3.org/1999/xlink"
 xmlns:xodm="http://www.corel.com/coreldraw/odm/2003">
 <defs>
  <style type="text/css">
   <![CDATA[
    .fil0 {fill:none}
    .fil1 {fill:black;fill-rule:nonzero}
   ]]>
  </style>
 </defs>
 <g id="Layer_x0020_1">
  <metadata id="CorelCorpID_0Corel-Layer"/>
  <rect class="fil0" width="180" height="180"/>
  <path class="fil1" d="M66.29 176.78c7.87,2.64 16.4,3.44 23.71,3.17 26.9,0 33.87,-18 37.07,-23 5.22,2.29 10.76,5.37 12.38,-2.19 0.46,-2.18 -0.92,-21.49 -1.13,-25.46 -0.67,-12.56 -3.5,-15.69 -16.11,-8.31 -3.74,2.18 -20.06,10.63 -22.07,12.83 -5.38,5.89 3.21,9.74 4.73,10.92 -12.92,31.22 -59.42,20.41 -75.88,-2.86 2.81,-23.65 24.2,-33.5 24.2,-33.5 5.52,-2.58 15.52,-7.62 22.08,-10.96 -3.48,-3.8 -5.93,-8.59 -7.65,-13.06 4.31,3.04 9.14,4.81 13.32,5.83 0.6,1.38 1.97,2.35 3.58,2.35l10.2 0c2.16,0 3.91,-1.75 3.91,-3.91 0,-2.16 -1.75,-3.9 -3.91,-3.9l-10.2 0c-1.06,0 -2.02,0.42 -2.72,1.11 -5.6,-1.4 -12.41,-4.24 -16.83,-10.04 -0.56,-2.34 -0.86,-4.07 -0.98,-4.69 -1.75,-9.65 -0.87,-21.59 -0.87,-21.59 1.62,-23.35 25.32,-23.58 27.55,-23.55 0.11,0 0.18,0 0.18,0 0,0 0.09,0 0.23,0 2.45,-0.03 25.9,0.34 27.5,23.55 0,0 0.88,11.94 -0.87,21.59 -0.39,2.13 -2.87,17.12 -11.27,26.31 6.56,3.33 16.56,8.38 22.07,10.96 0,0 23.09,10.63 24.45,36.31 0,0 0.37,3.23 0.94,8.53 6.91,-7.03 12.75,-15.23 17.24,-24.35 5.38,-10.89 9.09,-25.99 8.81,-38.42 -0.33,-14.08 -2.35,-26.12 -9,-39.73 -4.84,-9.96 -10.23,-17.06 -17.63,-24.62 -3.86,-3.93 -6.83,-6.25 -11.57,-9.73 -10.8,-7.93 -24.19,-12.89 -37.63,-15.22 -1.83,-0.35 -8.17,-0.73 -9.16,-1.15l-9.92 0c-0.61,0.27 -7.94,0.92 -9.43,1.18 -3.09,0.54 -5.76,1.11 -8.74,1.88 -5.27,1.29 -11.03,3.43 -15.57,5.68 -35.24,17.37 -50.52,47.39 -51.27,84.1 -0.74,37.27 30.69,74.27 66.26,83.94zm-11.1 -97.34c-6.06,0 -10.98,-4.92 -10.98,-10.98l0 -10.55c0,-4.88 3.19,-9.01 7.6,-10.44l0 -1.46c0,-9.26 2.95,-16.85 8.77,-22.56 11.37,-11.15 29.57,-10.93 30.33,-10.92 0.64,0.01 18.82,-0.28 30.2,10.85 5.83,5.72 8.8,13.33 8.8,22.63l0 1.47c4.4,1.43 7.59,5.56 7.59,10.43l0 10.55c0,6.06 -4.92,10.98 -10.98,10.98l-2.47 0 0 -28.78c0,-0.04 -0.01,-0.08 -0.01,-0.13l0 -4.52c0,-7.66 -2.37,-13.87 -7.04,-18.44 -9.63,-9.43 -25.88,-9.19 -26.08,-9.18 -0.28,-0.04 -16.66,-0.17 -26.26,9.27 -4.63,4.56 -6.98,10.74 -6.98,18.35l0 4.28c0,0.07 -0.02,0.14 -0.03,0.21l0 28.94 -2.46 0z"/>
 </g>
</svg>
