<?xml version="1.0" encoding="UTF-8"?>
<!DOCTYPE svg PUBLIC "-//W3C//DTD SVG 1.1//EN" "http://www.w3.org/Graphics/SVG/1.1/DTD/svg11.dtd">
<!-- Creator: CorelDRAW 2021 (64-Bit) -->
<svg xmlns="http://www.w3.org/2000/svg" xml:space="preserve" width="50px" height="50px" version="1.1" style="shape-rendering:geometricPrecision; text-rendering:geometricPrecision; image-rendering:optimizeQuality; fill-rule:evenodd; clip-rule:evenodd"
viewBox="0 0 44.57 44.57"
 xmlns:xlink="http://www.w3.org/1999/xlink"
 xmlns:xodm="http://www.corel.com/coreldraw/odm/2003">
 <defs>
  <style type="text/css">
   <![CDATA[
    .fil0 {fill:white;fill-rule:nonzero}
   ]]>
  </style>
 </defs>
 <g id="Layer_x0020_1">
  <metadata id="CorelCorpID_0Corel-Layer"/>
  <path class="fil0" d="M22.28 0c12.31,0 22.29,9.98 22.29,22.28 0,12.31 -9.98,22.29 -22.29,22.29 -12.3,0 -22.28,-9.98 -22.28,-22.29 0,-12.3 9.98,-22.28 22.28,-22.28zm-7.26 10.39c-0.46,0.09 -0.73,0.44 -0.95,0.67 -0.28,0.27 -0.53,0.52 -0.81,0.8 -0.54,0.54 -1.06,1.06 -1.6,1.6 -0.42,0.43 -1.18,1.02 -1.27,1.95 -0.09,1 0.08,1.97 0.33,2.86 0.45,1.65 1.17,3.17 1.98,4.44 0.66,1.02 1.26,1.89 2.02,2.81 0.73,0.88 2.68,2.93 3.56,3.66 0.15,0.12 0.27,0.26 0.43,0.38 1.36,1.12 2.17,1.75 3.77,2.66 1.29,0.72 2.95,1.53 4.62,1.81 0.91,0.15 1.98,0.32 2.78,-0.08 0.55,-0.28 1.22,-1.05 1.69,-1.53 0.38,-0.37 2.19,-2.1 2.42,-2.41 0.25,-0.34 0.3,-0.83 0.04,-1.23 -0.22,-0.33 -0.52,-0.47 -0.9,-0.7l-3.03 -1.79c-0.35,-0.2 -0.69,-0.39 -1.01,-0.59 -0.38,-0.23 -0.65,-0.42 -1.24,-0.38 -0.53,0.03 -0.81,0.28 -1.07,0.54l-1.19 1.2c-0.14,0.15 -0.26,0.28 -0.57,0.22 -1.02,-0.2 -2.35,-1.13 -3.07,-1.75 -0.97,-0.82 -2.4,-2.25 -3.18,-3.25 -0.33,-0.42 -1.91,-2.6 -1.37,-3.21 0.24,-0.27 0.55,-0.54 0.81,-0.8 0.24,-0.24 0.56,-0.51 0.73,-0.88 0.2,-0.44 0.19,-0.86 -0.03,-1.28 -0.73,-1.32 -1.49,-2.85 -2.22,-4.2 -0.35,-0.64 -0.7,-1.7 -1.67,-1.52z"/>
 </g>
</svg>
