<?xml version="1.0" encoding="UTF-8"?>
<!DOCTYPE svg PUBLIC "-//W3C//DTD SVG 1.1//EN" "http://www.w3.org/Graphics/SVG/1.1/DTD/svg11.dtd">
<!-- Creator: CorelDRAW 2021 (64-Bit) -->
<svg xmlns="http://www.w3.org/2000/svg" xml:space="preserve" width="180px" height="180px" version="1.1" style="shape-rendering:geometricPrecision; text-rendering:geometricPrecision; image-rendering:optimizeQuality; fill-rule:evenodd; clip-rule:evenodd"
viewBox="0 0 180 180"
 xmlns:xlink="http://www.w3.org/1999/xlink"
 xmlns:xodm="http://www.corel.com/coreldraw/odm/2003">
 <defs>
  <style type="text/css">
   <![CDATA[
    .fil0 {fill:none}
    .fil1 {fill:black;fill-rule:nonzero}
   ]]>
  </style>
 </defs>
 <g id="Layer_x0020_1">
  <metadata id="CorelCorpID_0Corel-Layer"/>
  <rect class="fil0" width="180" height="180"/>
  <path class="fil1" d="M89.98 0c49.71,0 90.02,40.3 90.02,89.98 0,49.71 -40.3,90.02 -90.02,90.02 -49.67,0 -89.98,-40.3 -89.98,-90.02 0,-49.68 40.31,-89.98 89.98,-89.98zm-29.32 41.96c-1.86,0.36 -2.95,1.78 -3.84,2.71 -1.13,1.09 -2.14,2.1 -3.27,3.23 -2.18,2.18 -4.28,4.28 -6.46,6.46 -1.7,1.74 -4.77,4.12 -5.13,7.88 -0.36,4.04 0.32,7.95 1.33,11.55 1.82,6.66 4.73,12.8 8,17.93 2.67,4.12 5.09,7.63 8.16,11.35 2.95,3.55 10.82,11.83 14.37,14.78 0.61,0.48 1.09,1.05 1.74,1.53 5.49,4.53 8.76,7.07 15.23,10.75 5.21,2.9 11.91,6.18 18.65,7.31 3.68,0.6 8,1.29 11.23,-0.33 2.22,-1.13 4.93,-4.24 6.83,-6.18 1.53,-1.49 8.84,-8.48 9.77,-9.73 1.01,-1.37 1.21,-3.35 0.16,-4.97 -0.89,-1.33 -2.1,-1.89 -3.63,-2.82l-12.24 -7.23c-1.41,-0.81 -2.78,-1.58 -4.08,-2.38 -1.53,-0.93 -2.62,-1.7 -5.01,-1.54 -2.14,0.12 -3.27,1.13 -4.32,2.18l-4.8 4.85c-0.57,0.6 -1.05,1.13 -2.31,0.89 -4.12,-0.81 -9.49,-4.57 -12.39,-7.07 -3.92,-3.31 -9.7,-9.09 -12.85,-13.13 -1.33,-1.69 -7.71,-10.5 -5.53,-12.96 0.97,-1.09 2.22,-2.18 3.27,-3.23 0.97,-0.97 2.26,-2.06 2.95,-3.56 0.81,-1.77 0.77,-3.47 -0.12,-5.16 -2.95,-5.34 -6.02,-11.51 -8.97,-16.97 -1.41,-2.58 -2.82,-6.86 -6.74,-6.14l0 0z"/>
 </g>
</svg>
