<?xml version="1.0" encoding="UTF-8"?>
<!DOCTYPE svg PUBLIC "-//W3C//DTD SVG 1.1//EN" "http://www.w3.org/Graphics/SVG/1.1/DTD/svg11.dtd">
<!-- Creator: CorelDRAW 2021 (64-Bit) -->
<svg xmlns="http://www.w3.org/2000/svg" xml:space="preserve" width="180px" height="180px" version="1.1" style="shape-rendering:geometricPrecision; text-rendering:geometricPrecision; image-rendering:optimizeQuality; fill-rule:evenodd; clip-rule:evenodd"
viewBox="0 0 180 180"
 xmlns:xlink="http://www.w3.org/1999/xlink"
 xmlns:xodm="http://www.corel.com/coreldraw/odm/2003">
 <defs>
  <style type="text/css">
   <![CDATA[
    .fil0 {fill:none}
    .fil1 {fill:black}
   ]]>
  </style>
 </defs>
 <g id="Layer_x0020_1">
  <metadata id="CorelCorpID_0Corel-Layer"/>
  <rect class="fil0" width="180" height="180"/>
  <path class="fil1" d="M153.61 26.39c35.18,35.09 35.18,92.13 0,127.22 -35.09,35.18 -92.13,35.18 -127.22,0 -35.18,-35.09 -35.18,-92.13 0,-127.22 35.09,-35.19 92.13,-35.19 127.22,0zm-20.41 72.25l-34.56 0 0 34.56c0,4.75 -3.89,8.64 -8.64,8.64l0 0c-4.75,0 -8.64,-3.89 -8.64,-8.64l0 -34.56 -34.56 0c-4.75,0 -8.64,-3.89 -8.64,-8.64l0 0c0,-4.76 3.89,-8.64 8.64,-8.64l34.56 0 0 -34.56c0,-4.75 3.89,-8.64 8.64,-8.64l0 0c4.75,0 8.64,3.89 8.64,8.64l0 34.56 34.56 0c4.75,0 8.64,3.88 8.64,8.64l0 0c0,4.75 -3.89,8.64 -8.64,8.64zm8.34 -60.18c28.51,28.42 28.51,74.66 0,103.08 -28.42,28.5 -74.66,28.5 -103.08,0 -28.51,-28.42 -28.51,-74.66 0,-103.08 28.42,-28.51 74.66,-28.51 103.08,0z"/>
 </g>
</svg>
