<?xml version="1.0" encoding="UTF-8"?>
<!DOCTYPE svg PUBLIC "-//W3C//DTD SVG 1.1//EN" "http://www.w3.org/Graphics/SVG/1.1/DTD/svg11.dtd">
<!-- Creator: CorelDRAW 2021 (64-Bit) -->
<svg xmlns="http://www.w3.org/2000/svg" xml:space="preserve" width="50px" height="50px" version="1.1" style="shape-rendering:geometricPrecision; text-rendering:geometricPrecision; image-rendering:optimizeQuality; fill-rule:evenodd; clip-rule:evenodd"
viewBox="0 0 9.6 9.6"
 xmlns:xlink="http://www.w3.org/1999/xlink"
 xmlns:xodm="http://www.corel.com/coreldraw/odm/2003">
 <defs>
  <style type="text/css">
   <![CDATA[
    .fil0 {fill:white}
   ]]>
  </style>
 </defs>
 <g id="Layer_x0020_1">
  <metadata id="CorelCorpID_0Corel-Layer"/>
  <path class="fil0" d="M4.8 0.87c2.17,0 3.93,1.76 3.93,3.93 0,2.17 -1.76,3.93 -3.93,3.93 -2.17,0 -3.93,-1.76 -3.93,-3.93 0,-2.17 1.76,-3.93 3.93,-3.93zm-0.74 0.76l1.36 0 0 2.39 2.4 0 0 1.36 -2.4 0 0 2.4 -1.36 0 0 -2.4 -2.4 0 0 -1.36 2.4 0 0 -2.39zm0.74 -1.63c2.65,0 4.8,2.15 4.8,4.8 0,2.65 -2.15,4.8 -4.8,4.8 -2.65,0 -4.8,-2.15 -4.8,-4.8 0,-2.65 2.15,-4.8 4.8,-4.8z"/>
 </g>
</svg>
