<?xml version="1.0" encoding="UTF-8" standalone="no"?>
<svg
   xmlns:dc="http://purl.org/dc/elements/1.1/"
   xmlns:cc="http://creativecommons.org/ns#"
   xmlns:rdf="http://www.w3.org/1999/02/22-rdf-syntax-ns#"
   xmlns:svg="http://www.w3.org/2000/svg"
   xmlns="http://www.w3.org/2000/svg"
   xmlns:sodipodi="http://sodipodi.sourceforge.net/DTD/sodipodi-0.dtd"
   xmlns:inkscape="http://www.inkscape.org/namespaces/inkscape"
   xml:space="preserve"
   width="2.2618mm"
   height="2.2618mm"
   version="1.1"
   shape-rendering="geometricPrecision"
   text-rendering="geometricPrecision"
   image-rendering="optimizeQuality"
   fill-rule="evenodd"
   clip-rule="evenodd"
   viewBox="0 0 178.4 178.4"
   id="svg6"
   sodipodi:docname="question_icon.svg"
   inkscape:version="1.0.2 (e86c870879, 2021-01-15)"><sodipodi:namedview
   pagecolor="#ffffff"
   bordercolor="#666666"
   borderopacity="1"
   objecttolerance="10"
   gridtolerance="10"
   guidetolerance="10"
   inkscape:pageopacity="0"
   inkscape:pageshadow="2"
   inkscape:window-width="1920"
   inkscape:window-height="1044"
   id="namedview23"
   showgrid="false"
   inkscape:zoom="74.77591"
   inkscape:cx="5.0811587"
   inkscape:cy="4.1058391"
   inkscape:window-x="0"
   inkscape:window-y="0"
   inkscape:window-maximized="1"
   inkscape:current-layer="svg6" /><metadata
   id="metadata12"><rdf:RDF><cc:Work
       rdf:about=""><dc:format>image/svg+xml</dc:format><dc:type
         rdf:resource="http://purl.org/dc/dcmitype/StillImage" /><dc:title /></cc:Work></rdf:RDF></metadata><defs
   id="defs10">
  
  
 </defs>
 
<g
   id="g995"
   transform="matrix(0.12715347,0,0,0.12715347,27.333436,26.793834)"
   style="fill:#ffffff"><g
     id="g938"
     style="fill:#ffffff">
	
	<path
   id="path936"
   style="fill:#ffffff"
   d="m 170.89,285.8 86.7,10.8 c 27.5,3.4 53.6,-12.4 63.5,-38.3 12.5,-32.7 29.9,-58.5 52.2,-77.3 31.601,-26.6 70.9,-40 117.9,-40 48.7,0 87.5,12.8 116.3,38.3 28.8,25.6 43.1,56.2 43.1,92.1 0,25.8 -8.1,49.4 -24.3,70.8 -10.5,13.6 -42.8,42.2 -96.7,85.9 -54,43.7 -89.899,83.099 -107.899,118.099 -18.4,35.801 -24.8,75.5 -26.4,115.301 -1.399,34.1 25.8,62.5 60,62.5 h 49 c 31.2,0 57,-23.9 59.8,-54.9 2,-22.299 5.7,-39.199 11.301,-50.699 9.399,-19.701 33.699,-45.701 72.699,-78.1 C 723.59,477.8 772.79,428.4 795.891,392 c 23,-36.3 34.6,-74.8 34.6,-115.5 0,-73.5 -31.3,-138 -94,-193.4 -62.6,-55.4 -147,-83.1 -253,-83.1 -100.8,0 -182.1,27.3 -244.1,82 -52.8,46.6 -84.9,101.8 -96.2,165.5 -3.501,18.6 9.199,36 27.699,38.3 z m 331.4,502.399 h -47 c -33.1,0 -60,26.9 -60,60 v 64.9 c 0,33.1 26.9,60 60,60 h 47 c 33.101,0 60,-26.9 60,-60 v -64.9 c 0,-33.199 -26.899,-60 -60,-60 z m -15.73964,-998.91943 c 387.40584,0 701.51444,314.10864 701.51444,701.51451 0,387.40591 -314.02995,701.59312 -701.51444,701.59312 -387.405862,0 -701.51447,-314.10857 -701.51447,-701.59312 0,-387.40587 314.029955,-701.51451 701.51447,-701.51451 z" />
</g><g
     id="g940"
     style="fill:#ffffff">
</g><g
     id="g942"
     style="fill:#ffffff">
</g><g
     id="g944"
     style="fill:#ffffff">
</g><g
     id="g946"
     style="fill:#ffffff">
</g><g
     id="g948"
     style="fill:#ffffff">
</g><g
     id="g950"
     style="fill:#ffffff">
</g><g
     id="g952"
     style="fill:#ffffff">
</g><g
     id="g954"
     style="fill:#ffffff">
</g><g
     id="g956"
     style="fill:#ffffff">
</g><g
     id="g958"
     style="fill:#ffffff">
</g><g
     id="g960"
     style="fill:#ffffff">
</g><g
     id="g962"
     style="fill:#ffffff">
</g><g
     id="g964"
     style="fill:#ffffff">
</g><g
     id="g966"
     style="fill:#ffffff">
</g><g
     id="g968"
     style="fill:#ffffff">
</g></g></svg>
