<?xml version="1.0" encoding="UTF-8"?>
<!DOCTYPE svg PUBLIC "-//W3C//DTD SVG 1.1//EN" "http://www.w3.org/Graphics/SVG/1.1/DTD/svg11.dtd">
<!-- Creator: CorelDRAW 2021 (64-Bit) -->
<svg xmlns="http://www.w3.org/2000/svg" xml:space="preserve" width="180px" height="180px" version="1.1" style="shape-rendering:geometricPrecision; text-rendering:geometricPrecision; image-rendering:optimizeQuality; fill-rule:evenodd; clip-rule:evenodd"
viewBox="0 0 180 180"
 xmlns:xlink="http://www.w3.org/1999/xlink"
 xmlns:xodm="http://www.corel.com/coreldraw/odm/2003">
 <defs>
  <style type="text/css">
   <![CDATA[
    .fil0 {fill:none}
    .fil1 {fill:black}
   ]]>
  </style>
 </defs>
 <g id="Layer_x0020_1">
  <metadata id="CorelCorpID_0Corel-Layer"/>
  <rect class="fil0" width="180" height="180"/>
  <path class="fil1" d="M85.13 36.05c-28.45,2.84 -38.01,30.53 -25.17,35.12 4.73,1.69 9.59,0.53 12.4,-3.93 3.61,-5.73 4.32,-13.71 15.15,-14.63 7.65,-0.66 13.58,2.35 15.36,8.39 3.84,13.01 -11.9,18.7 -19.6,27.4 -4.1,4.63 -7.38,11.2 -4.19,17.37 3.33,6.45 12.34,6.21 15.85,1.56 3.61,-4.81 0.62,-7.2 9.72,-13.92 9.11,-6.72 19.96,-13.53 20.91,-26.65 1.63,-22.28 -20.91,-32.66 -40.43,-30.71zm14.5 97.92c1.17,-7.06 -4.1,-12.63 -9.83,-13.63 -7.24,-1.27 -12.81,4.07 -13.8,9.94 -1.21,7.11 4.03,12.86 9.99,13.76 7.18,1.07 12.65,-4.07 13.64,-10.07zm80.33 -43.97c0.06,49.69 -40.27,90.02 -89.96,89.96 -49.69,0.06 -90.02,-40.27 -89.96,-89.96 -0.06,-49.69 40.27,-90.03 89.96,-89.96 49.69,-0.07 90.02,40.27 89.96,89.96zm-17.07 0c0.06,40.25 -32.64,72.95 -72.89,72.89 -40.25,0.06 -72.95,-32.64 -72.89,-72.89 -0.06,-40.25 32.64,-72.95 72.89,-72.89 40.25,-0.06 72.95,32.64 72.89,72.89z"/>
 </g>
</svg>
