<?xml version="1.0" encoding="UTF-8" standalone="no"?>
<!-- Creator: CorelDRAW 2021 (64-Bit) -->

<svg
   xml:space="preserve"
   width="48px"
   height="48px"
   version="1.1"
   style="shape-rendering:geometricPrecision; text-rendering:geometricPrecision; image-rendering:optimizeQuality; fill-rule:evenodd; clip-rule:evenodd"
   viewBox="0 0 5.51 5.51"
   id="svg1"
   sodipodi:docname="search_clear.svg"
   inkscape:version="1.4.3 (0d15f75042, 2025-12-25)"
   xmlns:inkscape="http://www.inkscape.org/namespaces/inkscape"
   xmlns:sodipodi="http://sodipodi.sourceforge.net/DTD/sodipodi-0.dtd"
   xmlns="http://www.w3.org/2000/svg"
   xmlns:svg="http://www.w3.org/2000/svg"><sodipodi:namedview
   id="namedview1"
   pagecolor="#505050"
   bordercolor="#ffffff"
   borderopacity="1"
   inkscape:showpageshadow="0"
   inkscape:pageopacity="0"
   inkscape:pagecheckerboard="1"
   inkscape:deskcolor="#505050"
   inkscape:zoom="11.510417"
   inkscape:cx="21.371946"
   inkscape:cy="11.59819"
   inkscape:window-width="2560"
   inkscape:window-height="1350"
   inkscape:window-x="0"
   inkscape:window-y="0"
   inkscape:window-maximized="1"
   inkscape:current-layer="Layer_x0020_1" />
 <defs
   id="defs1">
  <style
   type="text/css"
   id="style1">
   <![CDATA[
    .fil0 {fill:white}
   ]]>
  </style>
 </defs>
 <g
   id="Layer_x0020_1"
   inkscape:label="Layer 1">
  <metadata
   id="CorelCorpID_0Corel-Layer" />
  <path
   d="M 5.3328025,1.0364651 3.6142674,2.7549999 5.3328025,4.473535 c 0.2362633,0.2362634 0.2362633,0.6230041 0,0.8592674 -0.2362635,0.2362635 -0.6230042,0.2362635 -0.8592675,0 L 2.755,3.6142675 1.036465,5.3328024 c -0.23626336,0.2362635 -0.62300404,0.2362635 -0.85926745,0 -0.2362634,-0.2362633 -0.2362634,-0.623004 0,-0.8592674 L 1.8957325,2.7549999 0.17719755,1.0364651 c -0.2362634,-0.23626348 -0.2362634,-0.62300414 0,-0.85926756 0.23626341,-0.23626339 0.62300409,-0.23626339 0.85926745,0 L 2.755,1.8957325 4.473535,0.17719754 c 0.2362633,-0.23626339 0.623004,-0.23626339 0.8592675,0 0.2362633,0.23626342 0.2362633,0.62300408 0,0.85926756 z"
   id="path3"
   style="clip-rule:evenodd;fill-rule:evenodd;stroke-width:0.0703166;image-rendering:optimizeQuality;shape-rendering:geometricPrecision;text-rendering:geometricPrecision;fill:#ffffff" />
 </g>
</svg>
