<?xml version="1.0" encoding="UTF-8" standalone="no"?>
<!-- Creator: CorelDRAW -->

<svg
   xml:space="preserve"
   width="6.5193mm"
   height="6.5195mm"
   version="1.1"
   style="shape-rendering:geometricPrecision; text-rendering:geometricPrecision; image-rendering:optimizeQuality; fill-rule:evenodd; clip-rule:evenodd"
   viewBox="0 0 651.92 651.94"
   id="svg1"
   sodipodi:docname="iconX.svg"
   inkscape:version="1.4.3 (0d15f75042, 2025-12-25)"
   xmlns:inkscape="http://www.inkscape.org/namespaces/inkscape"
   xmlns:sodipodi="http://sodipodi.sourceforge.net/DTD/sodipodi-0.dtd"
   xmlns="http://www.w3.org/2000/svg"
   xmlns:svg="http://www.w3.org/2000/svg"><sodipodi:namedview
   id="namedview1"
   pagecolor="#505050"
   bordercolor="#ffffff"
   borderopacity="1"
   inkscape:showpageshadow="0"
   inkscape:pageopacity="0"
   inkscape:pagecheckerboard="1"
   inkscape:deskcolor="#505050"
   inkscape:document-units="mm"
   inkscape:zoom="44.844634"
   inkscape:cx="12.309165"
   inkscape:cy="12.320315"
   inkscape:window-width="2560"
   inkscape:window-height="1350"
   inkscape:window-x="0"
   inkscape:window-y="0"
   inkscape:window-maximized="1"
   inkscape:current-layer="Layer_x0020_1" />
 <defs
   id="defs1">
  <style
   type="text/css"
   id="style1">
   <![CDATA[
    .fil0 {fill:#1F1B20}
   ]]>
  </style>
 </defs>
 <g
   id="Layer_x0020_1"
   inkscape:label="Layer 1">
  <metadata
   id="CorelCorpID_0Corel-Layer" />
  <path
   class="fil0"
   d="M636.87 88.2c20.05,-20.06 20.05,-53.08 0,-73.13 -20.08,-20.06 -53.07,-20.09 -73.14,-0.02l-237.77 237.78 -237.78 -237.78c-20.07,-20.08 -53.05,-20.04 -73.13,0.02 -20.07,20.06 -20.07,53.07 0,73.13l237.76 237.77 -237.76 237.78c-20.07,20.07 -20.07,53.06 0.01,73.13 20.06,20.08 53.07,20.08 73.14,0l237.76 -237.77 237.75 237.77c20.07,20.08 53.08,20.08 73.15,0 20.07,-20.07 20.08,-53.05 0.01,-73.13l-237.78 -237.78 237.78 -237.77z"
   id="path1"
   style="fill:#000000" />
 </g>
</svg>
