<?xml version="1.0" encoding="UTF-8" standalone="no"?>
<!-- Creator: CorelDRAW 2021 (64-Bit) -->

<svg
   xml:space="preserve"
   width="48px"
   height="48px"
   version="1.1"
   style="shape-rendering:geometricPrecision; text-rendering:geometricPrecision; image-rendering:optimizeQuality; fill-rule:evenodd; clip-rule:evenodd"
   viewBox="0 0 5.51 5.51"
   id="svg1"
   sodipodi:docname="search_icon.svg"
   inkscape:version="1.4.3 (0d15f75042, 2025-12-25)"
   xmlns:inkscape="http://www.inkscape.org/namespaces/inkscape"
   xmlns:sodipodi="http://sodipodi.sourceforge.net/DTD/sodipodi-0.dtd"
   xmlns="http://www.w3.org/2000/svg"
   xmlns:svg="http://www.w3.org/2000/svg"><sodipodi:namedview
   id="namedview1"
   pagecolor="#505050"
   bordercolor="#ffffff"
   borderopacity="1"
   inkscape:showpageshadow="0"
   inkscape:pageopacity="0"
   inkscape:pagecheckerboard="1"
   inkscape:deskcolor="#505050"
   inkscape:zoom="23.020833"
   inkscape:cx="23.978281"
   inkscape:cy="24"
   inkscape:window-width="2560"
   inkscape:window-height="1350"
   inkscape:window-x="0"
   inkscape:window-y="0"
   inkscape:window-maximized="1"
   inkscape:current-layer="Layer_x0020_1" />
 <defs
   id="defs1">
  <style
   type="text/css"
   id="style1">
   <![CDATA[
    .fil0 {fill:white}
   ]]>
  </style>
 </defs>
 <g
   id="Layer_x0020_1"
   inkscape:label="Layer 1">
  <metadata
   id="CorelCorpID_0Corel-Layer" />
  <path
   class="fil0"
   d="M0.52 2.18c0,-0.23 0.08,-0.53 0.15,-0.69 0.61,-1.31 2.42,-1.31 3.04,0 0.16,0.33 0.18,0.69 0.1,1.06 -0.12,0.6 -0.65,1.12 -1.25,1.25 -0.81,0.16 -1.56,-0.22 -1.89,-0.94 -0.08,-0.16 -0.15,-0.46 -0.15,-0.69l0 0.01zm-0.52 -0.11c0,0.47 0.02,0.62 0.2,1.05 0.29,0.67 1.12,1.24 1.88,1.24 0.58,0 0.9,-0.08 1.37,-0.4 0.06,0.08 1.05,1.06 1.2,1.21 0.15,0.15 0.27,0.34 0.5,0.34 0.18,0 0.36,-0.17 0.36,-0.39 0,-0.19 -0.23,-0.36 -0.34,-0.47 -0.16,-0.15 -1.13,-1.15 -1.21,-1.2 0.54,-0.79 0.55,-1.73 0.01,-2.53 -0.36,-0.51 -1.03,-0.92 -1.67,-0.92 -0.47,0 -0.62,0.02 -1.05,0.2 -0.68,0.29 -1.25,1.12 -1.25,1.88l0 -0.01z"
   id="path1"
   style="fill:#000000" />
 </g>
</svg>
