<?xml version="1.0" encoding="UTF-8" standalone="no"?>
<!-- Creator: CorelDRAW 2021 (64-Bit) -->

<svg
   xml:space="preserve"
   width="50px"
   height="50px"
   version="1.1"
   style="shape-rendering:geometricPrecision; text-rendering:geometricPrecision; image-rendering:optimizeQuality; fill-rule:evenodd; clip-rule:evenodd"
   viewBox="0 0 11.13 11.13"
   id="svg1"
   sodipodi:docname="tick.svg"
   inkscape:version="1.4.2 (ebf0e940d0, 2025-05-08)"
   xmlns:inkscape="http://www.inkscape.org/namespaces/inkscape"
   xmlns:sodipodi="http://sodipodi.sourceforge.net/DTD/sodipodi-0.dtd"
   xmlns="http://www.w3.org/2000/svg"
   xmlns:svg="http://www.w3.org/2000/svg"><sodipodi:namedview
   id="namedview1"
   pagecolor="#505050"
   bordercolor="#ffffff"
   borderopacity="1"
   inkscape:showpageshadow="0"
   inkscape:pageopacity="0"
   inkscape:pagecheckerboard="1"
   inkscape:deskcolor="#505050"
   inkscape:zoom="17.24"
   inkscape:cx="24.970998"
   inkscape:cy="25"
   inkscape:window-width="2048"
   inkscape:window-height="1080"
   inkscape:window-x="0"
   inkscape:window-y="0"
   inkscape:window-maximized="1"
   inkscape:current-layer="Layer_x0020_1" />
 <defs
   id="defs1">
  <style
   type="text/css"
   id="style1">
   <![CDATA[
    .fil0 {fill:white}
   ]]>
  </style>
 </defs>
 <g
   id="Layer_x0020_1"
   inkscape:label="Layer 1">
  <metadata
   id="CorelCorpID_0Corel-Layer" />
  <path
   class="fil0"
   d="M9.46 3.2c1.07,1.76 0.84,4.07 -0.67,5.59 -1.78,1.78 -4.67,1.78 -6.45,0 -1.78,-1.78 -1.78,-4.67 0,-6.45 1.26,-1.26 3.08,-1.63 4.66,-1.1 0.17,-0.28 0.35,-0.55 0.57,-0.87 -1.99,-0.77 -4.33,-0.35 -5.94,1.26 -2.17,2.17 -2.17,5.69 0,7.87 2.17,2.17 5.69,2.17 7.87,0 1.97,-1.98 2.15,-5.07 0.53,-7.25 -0.22,0.34 -0.4,0.64 -0.57,0.95zm-4.16 3.2c-0.37,-0.67 -0.99,-1.67 -1.52,-2.21 -0.3,-0.3 -1.05,-0.23 -1.38,-0.08 -0.38,0.17 -0.28,0.38 -0.08,0.6 0.03,0.04 0.05,0.05 0.08,0.09 0.03,0.03 0.04,0.06 0.08,0.09 0.74,0.86 1.45,2.38 1.99,3.45 0.17,0.34 0.24,0.49 0.78,0.57 0.37,0.05 0.89,0 1.03,-0.28l0.35 -1.01c0.25,-0.66 0.5,-1.32 0.78,-1.94 0.15,-0.31 0.29,-0.62 0.43,-0.93 0.78,-1.67 0.85,-1.96 1.9,-3.44 0.3,-0.44 0.52,-0.62 0.15,-0.81 -0.29,-0.16 -0.84,-0.19 -1.18,-0.09 -0.21,0.06 -0.3,0.12 -0.41,0.27 -0.84,1.22 -0.57,0.75 -1.26,2.07 -0.3,0.58 -0.63,1.17 -0.92,1.79l-0.82 1.86z"
   id="path1"
   style="fill:#000000" />
 </g>
</svg>
