<?xml version="1.0" encoding="UTF-8"?>
<!DOCTYPE svg PUBLIC "-//W3C//DTD SVG 1.1//EN" "http://www.w3.org/Graphics/SVG/1.1/DTD/svg11.dtd">
<!-- Creator: CorelDRAW 2021 (64-Bit) -->
<svg xmlns="http://www.w3.org/2000/svg" xml:space="preserve" width="180px" height="180px" version="1.1" style="shape-rendering:geometricPrecision; text-rendering:geometricPrecision; image-rendering:optimizeQuality; fill-rule:evenodd; clip-rule:evenodd"
viewBox="0 0 180 180"
 xmlns:xlink="http://www.w3.org/1999/xlink"
 xmlns:xodm="http://www.corel.com/coreldraw/odm/2003">
 <defs>
  <style type="text/css">
   <![CDATA[
    .fil0 {fill:none}
    .fil1 {fill:black;fill-rule:nonzero}
   ]]>
  </style>
 </defs>
 <g id="Layer_x0020_1">
  <metadata id="CorelCorpID_0Corel-Layer"/>
  <rect class="fil0" width="180" height="180"/>
  <path class="fil1" d="M140.1 53.67c4.64,0.16 12.64,-3.43 14.58,-3.71 -0.89,2.5 -7.27,8.84 -9.33,10.58 -1.17,1.01 -2.5,1.98 -3.51,3.03 -0.61,1.33 3.55,42.48 -35.66,68.21 -23.18,15.18 -58.12,14.42 -80.81,-0.73 4.28,-1.13 11.59,3.15 31.13,-6.1 1.98,-0.92 6.71,-3.95 7.64,-5.04 -3.15,-0.57 -5.9,-0.69 -8.77,-1.9 -4.8,-1.98 -9.37,-5.29 -12.15,-9.37 -1.05,-1.58 -3.23,-5.33 -3.48,-7.31 4.61,0.24 6.87,0.69 11.39,-0.48 -5.41,-2.22 -9.85,-2.99 -14.58,-8.89 -3.55,-4.44 -6.38,-9.69 -6.34,-17.53l5.41 2.1c1.78,0.57 4.32,1.21 6.47,0.93 -1.14,-0.28 -5.3,-4.68 -6.3,-5.97 -6.35,-7.92 -7.07,-22.14 -1.86,-29.16 0.76,0.24 4.2,4.36 4.92,5.09 12.93,13.12 30.58,21.36 50.04,22.45 -0.48,-7.83 -1.33,-13.73 4.49,-21.65 3.55,-4.88 9.28,-9.33 17,-10.66 9.17,-1.53 18.01,1.74 23.06,6.99 0.81,0.89 0.85,1.05 2.34,0.73 3.56,-0.81 9.65,-2.87 12.72,-4.61 1.18,-0.65 1.21,-0.85 2.63,-1.17 -0.77,5.21 -6.54,11.23 -11.03,14.17l0 0zm-140.1 31.38l0 10.66c0.49,1.01 0.93,7.35 1.25,9.09 0.57,3.15 1.13,5.86 1.9,8.81 7.84,29.96 32.55,54.92 62.8,63.12 2.91,0.81 5.7,1.41 8.77,1.94 1.77,0.28 8.23,0.81 9.32,1.33l10.38 0c0.85,-0.32 7.76,-0.85 9.41,-1.09 29.52,-4.4 54.16,-23.3 67.33,-50.04 8.44,-17.16 8.15,-32.27 8.84,-33.92l0 -10.91c-1.13,-2.3 -0.24,-15.26 -9.05,-33.31 -4.84,-9.94 -10.21,-17.05 -17.65,-24.64 -3.83,-3.92 -6.82,-6.22 -11.55,-9.69 -10.78,-7.96 -24.19,-12.93 -37.59,-15.27 -1.86,-0.32 -8.2,-0.69 -9.21,-1.13l-9.9 0c-0.64,0.28 -7.95,0.93 -9.45,1.17 -3.11,0.57 -5.73,1.13 -8.72,1.86 -5.29,1.33 -11.03,3.47 -15.59,5.73 -27.3,13.45 -44.75,36.75 -50.12,66.88 -0.28,1.66 -0.81,8.6 -1.17,9.41l0 0z"/>
 </g>
</svg>
