<?xml version="1.0" encoding="UTF-8"?>
<!DOCTYPE svg PUBLIC "-//W3C//DTD SVG 1.1//EN" "http://www.w3.org/Graphics/SVG/1.1/DTD/svg11.dtd">
<!-- Creator: CorelDRAW 2021 (64-Bit) -->
<svg xmlns="http://www.w3.org/2000/svg" xml:space="preserve" width="50px" height="50px" version="1.1" style="shape-rendering:geometricPrecision; text-rendering:geometricPrecision; image-rendering:optimizeQuality; fill-rule:evenodd; clip-rule:evenodd"
viewBox="0 0 44.57 44.57"
 xmlns:xlink="http://www.w3.org/1999/xlink"
 xmlns:xodm="http://www.corel.com/coreldraw/odm/2003">
 <defs>
  <style type="text/css">
   <![CDATA[
    .fil0 {fill:white;fill-rule:nonzero}
   ]]>
  </style>
 </defs>
 <g id="Layer_x0020_1">
  <metadata id="CorelCorpID_0Corel-Layer"/>
  <path class="fil0" d="M34.69 13.29c1.15,0.04 3.13,-0.85 3.61,-0.92 -0.22,0.62 -1.8,2.19 -2.31,2.62 -0.29,0.25 -0.62,0.49 -0.87,0.75 -0.15,0.33 0.88,10.52 -8.83,16.89 -5.74,3.76 -14.39,3.57 -20.01,-0.18 1.06,-0.28 2.87,0.78 7.71,-1.51 0.49,-0.23 1.66,-0.98 1.89,-1.25 -0.78,-0.14 -1.46,-0.17 -2.17,-0.47 -1.19,-0.49 -2.32,-1.31 -3.01,-2.32 -0.26,-0.39 -0.8,-1.32 -0.86,-1.81 1.14,0.06 1.7,0.17 2.82,-0.12 -1.34,-0.55 -2.44,-0.74 -3.61,-2.2 -0.88,-1.1 -1.58,-2.4 -1.57,-4.34l1.34 0.52c0.44,0.14 1.07,0.3 1.6,0.23 -0.28,-0.07 -1.31,-1.16 -1.56,-1.48 -1.57,-1.96 -1.75,-5.48 -0.46,-7.22 0.19,0.06 1.04,1.08 1.22,1.26 3.2,3.25 7.57,5.29 12.39,5.56 -0.12,-1.94 -0.33,-3.4 1.11,-5.36 0.88,-1.21 2.3,-2.31 4.21,-2.64 2.27,-0.38 4.46,0.43 5.71,1.73 0.2,0.22 0.21,0.26 0.58,0.18 0.88,-0.2 2.39,-0.71 3.15,-1.14 0.29,-0.16 0.3,-0.21 0.65,-0.29 -0.19,1.29 -1.62,2.78 -2.73,3.51zm-34.69 7.77l0 2.64c0.12,0.25 0.23,1.82 0.31,2.25 0.14,0.78 0.28,1.45 0.47,2.18 1.94,7.42 8.06,13.6 15.55,15.63 0.72,0.2 1.41,0.35 2.17,0.48 0.44,0.07 2.04,0.2 2.31,0.33l2.57 0c0.21,-0.08 1.92,-0.21 2.33,-0.27 7.31,-1.09 13.41,-5.77 16.67,-12.39 2.09,-4.25 2.02,-7.99 2.19,-8.4l0 -2.7c-0.28,-0.57 -0.06,-3.78 -2.24,-8.25 -1.2,-2.46 -2.53,-4.22 -4.37,-6.1 -0.95,-0.97 -1.69,-1.54 -2.86,-2.4 -2.67,-1.97 -5.99,-3.2 -9.31,-3.78 -0.46,-0.08 -2.03,-0.17 -2.28,-0.28l-2.45 0c-0.16,0.07 -1.97,0.23 -2.34,0.29 -0.77,0.14 -1.42,0.28 -2.16,0.46 -1.31,0.33 -2.73,0.86 -3.86,1.42 -6.76,3.33 -11.08,9.1 -12.41,16.56 -0.07,0.41 -0.2,2.13 -0.29,2.33z"/>
 </g>
</svg>
