<?xml version="1.0" encoding="UTF-8"?>
<!DOCTYPE svg PUBLIC "-//W3C//DTD SVG 1.1//EN" "http://www.w3.org/Graphics/SVG/1.1/DTD/svg11.dtd">
<!-- Creator: CorelDRAW 2021 (64-Bit) -->
<svg xmlns="http://www.w3.org/2000/svg" xml:space="preserve" width="50px" height="50px" version="1.1" style="shape-rendering:geometricPrecision; text-rendering:geometricPrecision; image-rendering:optimizeQuality; fill-rule:evenodd; clip-rule:evenodd"
viewBox="0 0 47.16 47.15"
 xmlns:xlink="http://www.w3.org/1999/xlink"
 xmlns:xodm="http://www.corel.com/coreldraw/odm/2003">
 <defs>
  <style type="text/css">
   <![CDATA[
    .fil0 {fill:white;fill-rule:nonzero}
   ]]>
  </style>
 </defs>
 <g id="Layer_x0020_1">
  <metadata id="CorelCorpID_0Corel-Layer"/>
  <path class="fil0" d="M0 22.28l0 2.8c0.13,0.26 0.25,1.92 0.33,2.37 0.15,0.83 0.29,1.54 0.5,2.31 2.05,7.86 8.52,14.39 16.45,16.54 3.29,0.89 6.55,1.08 9.92,0.57 7.73,-1.16 14.19,-6.1 17.64,-13.1 2.22,-4.5 2.14,-8.46 2.32,-8.89l0 -2.86c-0.3,-0.6 -0.06,-4 -2.37,-8.73 -1.27,-2.61 -2.68,-4.47 -4.62,-6.45 -1.01,-1.03 -1.79,-1.64 -3.03,-2.55 -2.83,-2.08 -6.34,-3.38 -9.86,-3.99 -0.48,-0.09 -2.14,-0.19 -2.4,-0.3l-2.6 0c-0.16,0.07 -2.08,0.24 -2.47,0.31 -0.81,0.14 -1.51,0.29 -2.29,0.49 -1.38,0.34 -2.89,0.9 -4.08,1.49 -7.16,3.53 -11.72,9.63 -13.13,17.53 -0.08,0.43 -0.22,2.25 -0.31,2.46zm6.95 14.09c0,-1.25 0.27,-2.58 0.56,-3.6 0.17,-0.6 0.32,-1 0.53,-1.54 0.18,-0.45 0.4,-1 0.63,-1.38 0.15,-0.23 0.23,-0.43 0.37,-0.67 0.9,-1.48 1.53,-2.27 2.75,-3.48 1.27,-1.25 2.78,-2.11 4.34,-2.86 0.81,-0.39 0.6,-0.25 1.23,0.22 2.22,1.65 5.23,2.35 8.11,1.84 0.57,-0.11 1.13,-0.26 1.65,-0.43 3.47,-1.19 2.57,-2.29 3.96,-1.61l1.38 0.69c0.59,0.31 1.94,1.29 2.38,1.7 0.99,0.94 1.65,1.49 2.49,2.72 0.15,0.23 0.29,0.38 0.42,0.61l1.07 1.98c0.99,2.12 1.39,4.1 1.39,6.55 0,0.47 -0.58,1.04 -1.04,1.04 -10.39,3.57 -20.79,3.9 -31.18,0 -0.46,0 -1.04,-0.57 -1.04,-1.04l0 -0.74zm7.6 -22.4c0,-1.28 0.45,-2.55 0.85,-3.45 0.64,-1.44 1.74,-2.59 2.97,-3.52 0.33,-0.25 0.94,-0.61 1.33,-0.78 2.6,-1.15 5.16,-1.15 7.76,0 1.83,0.81 3.42,2.51 4.3,4.3 0.71,1.43 0.85,2.63 0.85,4.3 0,2.21 -1.18,4.53 -2.63,5.98 -2.67,2.67 -6.94,3.42 -10.28,1.78 -0.9,-0.44 -1.84,-1.1 -2.52,-1.78 -0.38,-0.38 -0.68,-0.77 -1,-1.19 -0.25,-0.34 -0.61,-0.94 -0.78,-1.33 -0.73,-1.65 -0.85,-2.45 -0.85,-4.31z"/>
 </g>
</svg>
