<?xml version="1.0" encoding="UTF-8"?>
<!DOCTYPE svg PUBLIC "-//W3C//DTD SVG 1.1//EN" "http://www.w3.org/Graphics/SVG/1.1/DTD/svg11.dtd">
<!-- Creator: CorelDRAW 2021 (64-Bit) -->
<svg xmlns="http://www.w3.org/2000/svg" xml:space="preserve" width="180px" height="180px" version="1.1" style="shape-rendering:geometricPrecision; text-rendering:geometricPrecision; image-rendering:optimizeQuality; fill-rule:evenodd; clip-rule:evenodd"
viewBox="0 0 180 180"
 xmlns:xlink="http://www.w3.org/1999/xlink"
 xmlns:xodm="http://www.corel.com/coreldraw/odm/2003">
 <defs>
  <style type="text/css">
   <![CDATA[
    .fil0 {fill:none}
    .fil1 {fill:black;fill-rule:nonzero}
   ]]>
  </style>
 </defs>
 <g id="Layer_x0020_1">
  <metadata id="CorelCorpID_0Corel-Layer"/>
  <rect class="fil0" width="180" height="180"/>
  <path class="fil1" d="M0 85.06l0 10.69c0.5,0.99 0.95,7.32 1.26,9.04 0.57,3.17 1.11,5.88 1.91,8.82 7.82,30 32.52,54.92 62.79,63.13 12.55,3.39 24.99,4.12 37.86,2.17 29.5,-4.42 54.16,-23.28 67.32,-50 8.48,-17.17 8.17,-32.29 8.86,-33.93l0 -10.91c-1.15,-2.29 -0.23,-15.27 -9.05,-33.32 -4.84,-9.97 -10.23,-17.06 -17.63,-24.62 -3.86,-3.93 -6.83,-6.26 -11.57,-9.73 -10.8,-7.94 -24.19,-12.9 -37.63,-15.23 -1.83,-0.35 -8.17,-0.73 -9.16,-1.15l-9.92 0c-0.61,0.27 -7.94,0.92 -9.43,1.18 -3.09,0.54 -5.76,1.11 -8.74,1.88 -5.27,1.29 -11.03,3.43 -15.57,5.68 -27.33,13.48 -44.73,36.76 -50.12,66.91 -0.3,1.64 -0.84,8.59 -1.18,9.39zm67.29 -34.19c0,5.23 0.14,6.94 2.24,11.7 0.37,0.84 1.09,2.05 1.63,2.78 0.85,1.13 1.72,2.28 2.72,3.28 1.76,1.76 4.25,3.45 6.49,4.55 8.36,4.1 19.21,1.98 25.74,-4.55 3.5,-3.5 6.6,-9.46 6.6,-14.52 0,-4.21 -0.15,-7.39 -2.03,-11.2 -2.13,-4.31 -6.18,-8.9 -10.63,-10.87 -6.89,-3.05 -13.22,-3.04 -20.11,0.01 -0.78,0.34 -2.06,1.08 -2.73,1.59 -3.07,2.32 -6.1,5.27 -7.69,8.84 -1.1,2.47 -2.23,5.67 -2.23,8.39zm74.16 82.58c-0.47,-4.83 -1.62,-9.24 -3.8,-13.99l-3.76 -6.96c-0.41,-0.59 -0.85,-1.15 -1.19,-1.67 -2.3,-3.37 -4.77,-5.5 -7.79,-8.35 -1.38,-1.27 -4.83,-3.75 -6.38,-4.58l-1.12 -0.56c-3,1.97 -6.01,3.34 -10.11,4.73 -2.61,0.89 -5.3,1.6 -8.01,2.09 -12.49,2.24 -25.8,-0.15 -36.61,-6.83 -3.4,1.84 -6.68,3.97 -9.42,6.68 -3.7,3.66 -6,6.57 -8.66,10.93 -0.54,0.94 -0.99,1.94 -1.56,2.8 -0.45,0.75 -1.02,2.3 -1.41,3.32 -0.64,1.6 -1.19,3.12 -1.66,4.78 -0.68,2.41 -1.27,5.08 -1.53,7.69 34.33,11.93 68.59,10.93 103.01,-0.08zm-85.92 -82.58c0,-4.88 1.72,-9.73 3.25,-13.17 2.44,-5.49 6.64,-9.88 11.33,-13.43 1.26,-0.96 3.59,-2.33 5.08,-2.98 9.92,-4.39 19.69,-4.39 29.62,0 6.98,3.09 13.05,9.58 16.41,16.41 2.71,5.46 3.24,10.04 3.24,16.41 0,8.44 -4.5,17.29 -10.04,22.83 -10.19,10.19 -26.48,13.05 -39.23,6.79 -3.44,-1.68 -7.03,-4.2 -9.62,-6.79 -1.45,-1.45 -2.6,-2.94 -3.82,-4.54 -0.95,-1.3 -2.32,-3.59 -2.97,-5.08 -2.79,-6.3 -3.25,-9.35 -3.25,-16.45l0 0zm-29 85.5c0,-4.77 1.03,-9.85 2.13,-13.74 0.65,-2.29 1.23,-3.82 2.03,-5.88 0.68,-1.72 1.52,-3.82 2.4,-5.27 0.57,-0.88 0.88,-1.64 1.41,-2.56 3.44,-5.65 5.84,-8.66 10.5,-13.28 4.85,-4.77 10.61,-8.05 16.56,-10.91 3.1,-1.49 2.3,-0.96 4.7,0.84 8.47,6.29 19.96,8.96 30.95,7.02 2.18,-0.42 4.32,-0.99 6.3,-1.64 13.24,-4.54 9.81,-8.74 15.11,-6.15l5.27 2.64c2.25,1.18 7.4,4.92 9.08,6.49 3.78,3.58 6.3,5.68 9.51,10.38 0.57,0.87 1.1,1.45 1.6,2.32l4.09 7.56c3.77,8.09 5.3,15.65 5.3,25 0,1.8 -2.21,3.97 -3.97,3.97 -39.66,13.63 -79.35,14.89 -119,0 -1.76,0 -3.97,-2.17 -3.97,-3.97l0 -2.82 0 0z"/>
 </g>
</svg>
