<?xml version="1.0" encoding="UTF-8"?>
<!DOCTYPE svg PUBLIC "-//W3C//DTD SVG 1.1//EN" "http://www.w3.org/Graphics/SVG/1.1/DTD/svg11.dtd">
<!-- Creator: CorelDRAW 2021 (64-Bit) -->
<svg xmlns="http://www.w3.org/2000/svg" xml:space="preserve" width="50px" height="50px" version="1.1" style="shape-rendering:geometricPrecision; text-rendering:geometricPrecision; image-rendering:optimizeQuality; fill-rule:evenodd; clip-rule:evenodd"
viewBox="0 0 44.57 44.57"
 xmlns:xlink="http://www.w3.org/1999/xlink"
 xmlns:xodm="http://www.corel.com/coreldraw/odm/2003">
 <defs>
  <style type="text/css">
   <![CDATA[
    .fil0 {fill:white;fill-rule:nonzero}
   ]]>
  </style>
 </defs>
 <g id="Layer_x0020_1">
  <metadata id="CorelCorpID_0Corel-Layer"/>
  <path class="fil0" d="M22.02 3.48c-1.94,0 -3.59,1.29 -4.87,2.55 -0.31,0.3 -0.4,0.47 -0.67,0.81l-1.19 1.69 13.81 0c-0.2,-0.3 -0.36,-0.59 -0.57,-0.91 -0.77,-1.13 -1.78,-2.25 -2.92,-3.01 -0.36,-0.23 -0.5,-0.35 -0.95,-0.53 -1.04,-0.42 -1.35,-0.6 -2.64,-0.6zm-22.02 15.5c0,0.58 1.12,2.99 1.45,3.78l1.08 2.66c0.34,0.78 0.5,0.61 2.01,0.61 0.62,0 0.87,-0.87 1.29,-1.85 0.29,-0.68 0.82,-1.54 0.99,-2.24 0.27,0.2 0.37,0.7 0.52,1.04l0.99 2.24c0.42,0.97 0.42,0.81 2.07,0.81 0.7,0 1.15,-1.48 1.54,-2.39 0.28,-0.69 1.96,-4.31 1.96,-4.58 0,-0.62 -1.16,-0.43 -2.01,-0.43 -0.71,0 -0.83,0.93 -1.23,1.92 -0.14,0.35 -0.68,2.05 -0.96,2.26 -0.03,-0.4 -1.12,-2.77 -1.36,-3.35 -0.41,-1 -0.37,-0.83 -2.14,-0.83 -0.45,0 -1.37,2.4 -1.64,3.06 -0.15,0.35 -0.37,0.75 -0.45,1.12 -0.31,-0.23 -1.14,-2.93 -1.3,-3.41 -0.34,-0.95 -0.37,-0.77 -2.29,-0.77 -0.27,0 -0.52,0.08 -0.52,0.35zm30.67 0.08c0,0.29 0.58,1.51 0.7,1.83l1.91 4.63c0.29,0.67 0.67,0.51 1.94,0.51 0.7,0 0.88,-0.98 1.34,-1.89 0.21,-0.43 0.83,-2 1.11,-2.2 0.03,0.38 0.71,1.76 0.91,2.22 0.16,0.4 0.33,0.74 0.48,1.09 0.41,0.93 0.25,0.78 2.1,0.78 0.59,0 0.73,-0.66 1.08,-1.46 0.38,-0.88 2.33,-5 2.33,-5.59 0,-0.52 -1.22,-0.35 -2.01,-0.35 -0.65,0 -0.8,0.9 -1.17,1.88 -0.16,0.41 -0.3,0.71 -0.45,1.12 -0.14,0.34 -0.36,0.83 -0.39,1.18 -0.19,-0.14 -0.19,-0.24 -0.29,-0.49l-1.2 -2.82c-0.39,-1.02 -0.26,-0.87 -2.01,-0.87 -0.63,0 -0.9,0.96 -1.29,1.93 -0.25,0.59 -0.85,1.8 -0.98,2.34l-0.23 -0.56c-0.08,-0.24 -0.13,-0.38 -0.2,-0.58 -0.16,-0.37 -0.26,-0.75 -0.42,-1.15 -0.9,-2.27 -0.13,-1.98 -2.82,-1.98 -0.2,0 -0.44,0.23 -0.44,0.43zm-12.06 6.97c2.39,0 1.44,0.35 3.12,-2.99 0.18,-0.35 0.38,-0.8 0.47,-1.19l1.47 3.32c0.41,1.02 0.31,0.86 2.11,0.86 0.67,0 0.71,-0.67 1.2,-1.68l1.76 -3.99c0.76,-1.85 0.94,-1.73 -1.56,-1.73 -0.61,0 -0.76,0.84 -1.19,1.95 -0.16,0.43 -0.27,0.71 -0.44,1.13 -0.14,0.36 -0.35,0.79 -0.38,1.19l-1.46 -3.43c-0.43,-0.99 -0.3,-0.84 -2.04,-0.84 -0.63,0 -0.82,0.92 -1.25,1.88 -0.18,0.41 -0.91,1.98 -0.93,2.3l-0.94 -2.29c-0.84,-2.13 -0.17,-1.89 -2.65,-1.89 -1.09,0 -0.3,1.23 -0.12,1.69 0.29,0.72 0.54,1.33 0.84,2.04 0.26,0.63 0.54,1.29 0.82,1.96 0.37,0.88 0.48,1.71 1.17,1.71zm13.29 12.36c0.08,-0.34 1.1,-1.81 1.22,-2.35l1.84 0c-0.43,0.64 -2.36,1.88 -3.06,2.35zm-16.61 -2.35l13.81 0 -1.17 1.7c-0.73,0.97 -2.09,2.28 -3.21,2.73 -1.92,0.77 -3.01,0.9 -4.97,0.01l-0.96 -0.53c-0.35,-0.2 -0.5,-0.38 -0.84,-0.64 -0.56,-0.43 -1.71,-1.78 -2.07,-2.37 -0.21,-0.34 -0.38,-0.59 -0.59,-0.9zm-5.85 0l1.83 0 1.23 2.35c-0.26,-0.17 -0.54,-0.33 -0.8,-0.51l-1.54 -1.17c-0.27,-0.24 -0.53,-0.38 -0.72,-0.67zm11.62 8.53l0.18 0c3.64,0 5.83,-0.18 9.34,-1.58 3.11,-1.24 5.72,-3.11 7.98,-5.45 0.8,-0.82 2.32,-2.83 2.86,-3.77l2.1 -4.69 -3.76 0c-0.16,0.71 -0.85,1.98 -1.26,2.66 -0.18,0.3 -0.33,0.53 -0.49,0.82l-3.49 0c0.2,-0.86 0.79,-2.7 0.79,-3.48l-3.59 0c-0.3,1.3 -0.75,2.59 -0.96,3.48l-17.13 0c-0.21,-0.93 -0.65,-2.14 -0.96,-3.48l-3.58 0c0,0.94 0.75,3.01 0.79,3.48l-3.5 0c-0.51,-0.97 -1.52,-2.49 -1.75,-3.48l-3.76 0c0.07,0.28 0.17,0.53 0.27,0.78l0.64 1.62c0.43,1.03 1.79,3.32 2.47,4.15 0.19,0.23 0.31,0.42 0.5,0.64l1.04 1.22c0.69,0.82 1.23,1.15 1.7,1.62 1.32,1.3 4.32,3.11 6.21,3.83 2.11,0.82 5.03,1.63 7.36,1.63zm0.59 -44.57l1.8 0c1.18,0.05 2.38,0.21 3.8,0.54 7.06,1.63 13.04,6.69 15.71,13.34 0.2,0.5 0.44,1.1 0.56,1.62l-3.76 0c-0.27,-1.16 -1.22,-2.5 -1.75,-3.49l-3.49 0c0.19,0.83 0.79,2.71 0.79,3.49l-3.59 0c-0.14,-0.6 -0.28,-1.2 -0.45,-1.82 -0.14,-0.51 -0.38,-1.13 -0.51,-1.67l-17.13 0c-0.21,0.91 -0.65,2.16 -0.96,3.49l-3.58 0c0,-0.95 0.75,-3.03 0.79,-3.49l-3.5 0c-0.3,0.57 -0.66,1.1 -0.96,1.66l-0.79 1.83 -3.76 0c0.08,-0.32 0.17,-0.55 0.29,-0.85 0.12,-0.29 0.18,-0.55 0.3,-0.83 0.85,-2 2,-3.96 3.37,-5.62 0.57,-0.69 1.5,-1.74 2.14,-2.3 0.25,-0.22 0.36,-0.28 0.61,-0.53 2.48,-2.4 7.88,-4.86 11.48,-5.19 0.94,-0.08 1.78,-0.15 2.59,-0.18zm10.25 6.18c0.3,0.68 1.13,1.96 1.22,2.35l1.84 0c-0.24,-0.35 -0.41,-0.41 -0.72,-0.68 -0.83,-0.71 -1.48,-1.1 -2.34,-1.67zm-20.63 2.35l1.23 -2.35c-0.28,0.18 -0.57,0.35 -0.85,0.55 -0.28,0.2 -0.49,0.33 -0.77,0.54 -0.31,0.24 -1.25,0.98 -1.44,1.26l1.83 0z"/>
 </g>
</svg>
