<?xml version="1.0" encoding="UTF-8"?>
<!DOCTYPE svg PUBLIC "-//W3C//DTD SVG 1.1//EN" "http://www.w3.org/Graphics/SVG/1.1/DTD/svg11.dtd">
<!-- Creator: CorelDRAW 2021 (64-Bit) -->
<svg xmlns="http://www.w3.org/2000/svg" xml:space="preserve" width="180px" height="180px" version="1.1" style="shape-rendering:geometricPrecision; text-rendering:geometricPrecision; image-rendering:optimizeQuality; fill-rule:evenodd; clip-rule:evenodd"
viewBox="0 0 180 180"
 xmlns:xlink="http://www.w3.org/1999/xlink"
 xmlns:xodm="http://www.corel.com/coreldraw/odm/2003">
 <defs>
  <style type="text/css">
   <![CDATA[
    .fil0 {fill:none}
    .fil1 {fill:black}
   ]]>
  </style>
 </defs>
 <g id="Layer_x0020_1">
  <metadata id="CorelCorpID_0Corel-Layer"/>
  <rect class="fil0" width="180" height="180"/>
  <path class="fil1" d="M90.02 0c49.67,0 89.98,40.3 89.98,90.02 0,49.68 -40.31,89.98 -89.98,89.98 -49.71,0 -90.02,-40.3 -90.02,-89.98 0,-49.71 40.3,-90.02 90.02,-90.02zm2.58 130.45l-24.03 -0.45c-7.79,-0.16 -15.63,0.16 -23.26,-1.45 -11.59,-2.35 -12.44,-13.98 -13.29,-23.75 -1.17,-13.73 -0.72,-27.7 1.5,-41.27 1.29,-7.64 6.26,-12.2 13.93,-12.68 25.97,-1.82 52.1,-1.58 78.03,-0.77 2.74,0.08 5.49,0.48 8.19,0.97 13.29,2.34 13.61,15.54 14.5,26.61 0.85,11.23 0.49,22.5 -1.17,33.64 -1.29,9.21 -3.84,16.92 -14.5,17.69 -13.37,0.97 -26.41,1.74 -39.78,1.5 0,-0.05 -0.08,-0.05 -0.12,-0.05l0 0 0 0.01zm-16.24 -17.8c13.3,-7.64 26.33,-15.17 39.57,-22.75 -13.29,-7.64 -26.32,-15.17 -39.57,-22.75l0 45.5 0 0z"/>
 </g>
</svg>
