<?xml version="1.0" encoding="UTF-8"?>
<!DOCTYPE svg PUBLIC "-//W3C//DTD SVG 1.1//EN" "http://www.w3.org/Graphics/SVG/1.1/DTD/svg11.dtd">
<!-- Creator: CorelDRAW 2021 (64-Bit) -->
<svg xmlns="http://www.w3.org/2000/svg" xml:space="preserve" width="50px" height="50px" version="1.1" style="shape-rendering:geometricPrecision; text-rendering:geometricPrecision; image-rendering:optimizeQuality; fill-rule:evenodd; clip-rule:evenodd"
viewBox="0 0 44.57 44.57"
 xmlns:xlink="http://www.w3.org/1999/xlink"
 xmlns:xodm="http://www.corel.com/coreldraw/odm/2003">
 <defs>
  <style type="text/css">
   <![CDATA[
    .fil0 {fill:white}
   ]]>
  </style>
 </defs>
 <g id="Layer_x0020_1">
  <metadata id="CorelCorpID_0Corel-Layer"/>
  <path class="fil0" d="M22.29 0c12.3,0 22.28,9.98 22.28,22.29 0,12.3 -9.98,22.28 -22.28,22.28 -12.31,0 -22.29,-9.98 -22.29,-22.28 0,-12.31 9.98,-22.29 22.29,-22.29zm0.64 32.3l-5.95 -0.11c-1.93,-0.04 -3.87,0.04 -5.76,-0.36 -2.87,-0.58 -3.08,-3.46 -3.29,-5.88 -0.29,-3.4 -0.18,-6.86 0.37,-10.22 0.32,-1.89 1.55,-3.02 3.45,-3.14 6.43,-0.45 12.9,-0.39 19.32,-0.19 0.68,0.02 1.36,0.12 2.03,0.24 3.29,0.58 3.37,3.85 3.59,6.59 0.21,2.78 0.12,5.57 -0.29,8.33 -0.32,2.28 -0.95,4.19 -3.59,4.38 -3.31,0.24 -6.54,0.43 -9.85,0.37 0,-0.01 -0.02,-0.01 -0.03,-0.01l0 0zm-3.5 -5.78c2.49,-1.43 4.93,-2.84 7.41,-4.26 -2.49,-1.43 -4.93,-2.84 -7.41,-4.26l0 8.52z"/>
 </g>
</svg>
